<svg id="icons" height="512" viewBox="0 0 64 64" width="512" xmlns="http://www.w3.org/2000/svg"><g><path d="m34 59v3h-2-2v-3z" fill="#545c66"/><path d="m27 46.06h10v3.96h-10z" fill="#e9573f"/><path d="m27 50.02h10v3.98h-10z" fill="#fc6e51"/><path d="m37 54-2 5h-1-4-1l-2-5z" fill="#656d78"/><path d="m29 31h3v10h-1l-4 .8-1 .2v-9a1.99309 1.99309 0 0 1 2-2z" fill="#656d78"/><path d="m38 33v9l-1-.2-4-.8h-1v-10h4a1.99309 1.99309 0 0 1 2 2z" fill="#545c66"/><path d="m34 20a1.99309 1.99309 0 0 1 2 2l-.86 6h-6.28l-.86-6a1.99309 1.99309 0 0 1 2-2z" fill="#fc6e51"/><path d="m37 46.06h-10v-2.06-2.2l4-.8h1 1l4 .8v2.2z" fill="#fc6e51"/><path d="m35 29v2h-3-3v-2l-.14-1h6.28z" fill="#e9573f"/><path d="m35.67 16 .33 1c0 1.66-.89 3-2 3h-4c-1.11 0-2-1.34-2-3l.33-1h.01l.66-2 1-1h4l1 1z" fill="#656d78"/></g><g><path d="m34 21a1 1 0 0 1 0-2c.4082 0 1-.7793 1-2a1 1 0 0 1 2 0c0 2.24316-1.31738 4-3 4z"/><path d="m36 18.00049a.99992.99992 0 0 1 -.94824-.68408l-1-3a.99964.99964 0 1 1 1.89648-.63282l1 3a1.00076 1.00076 0 0 1 -.94824 1.3169z"/><path d="m35.666 17h-.666a1 1 0 0 1 0-2h.666a1 1 0 0 1 0 2z"/><path d="m35 15a.99676.99676 0 0 1 -.707-.293l-2-2a.99989.99989 0 0 1 1.414-1.414l2 2a1 1 0 0 1 -.707 1.707z"/><path d="m33.86914 13.87012a1.0004 1.0004 0 0 1 -.292-1.957 1.98733 1.98733 0 0 0 1.41211-1.9126 1 1 0 0 1 2 0 3.97812 3.97812 0 0 1 -2.82813 3.82568.992.992 0 0 1 -.29198.04392z"/><path d="m36 23a.99974.99974 0 0 1 -1-1 1.001 1.001 0 0 0 -1-1 1 1 0 0 1 0-2 3.00328 3.00328 0 0 1 3 3 .99974.99974 0 0 1 -1 1z"/><path d="m35.001 30a1.01137 1.01137 0 0 1 -.14258-.01025.99987.99987 0 0 1 -.84863-1.13135l1-7a1.0003 1.0003 0 0 1 1.98046.2832l-1 7a1.00028 1.00028 0 0 1 -.98925.8584z"/><path d="m34.999 15a1.00011 1.00011 0 0 1 -.1289-1.9917c.27929-.04 7.02148-1.13574 10.168-12.27978a.99949.99949 0 1 1 1.92382.543c-3.52539 12.49073-11.49414 13.67579-11.832 13.72022a1.08271 1.08271 0 0 1 -.13092.00826z"/><path d="m35 32a.99974.99974 0 0 1 -1-1v-2a1 1 0 0 1 2 0v2a.99974.99974 0 0 1 -1 1z"/><path d="m38 34a.99943.99943 0 0 1 -1-1 1.001 1.001 0 0 0 -1-1 1 1 0 0 1 0-2 3.00328 3.00328 0 0 1 3 3 .99943.99943 0 0 1 -1 1z"/><path d="m38 43a.99943.99943 0 0 1 -1-1v-9a1 1 0 0 1 2 0v9a.99943.99943 0 0 1 -1 1z"/><path d="m36 32h-1a1 1 0 0 1 0-2h1a1 1 0 0 1 0 2z"/><path d="m38.001 43a.97225.97225 0 0 1 -.19727-.01953l-5-1a.99993.99993 0 1 1 .39258-1.96094l5 1a1 1 0 0 1 -.19531 1.98047z"/><path d="m37 55a.99943.99943 0 0 1 -1-1v-12.2002a1 1 0 0 1 2 0v12.2002a.99943.99943 0 0 1 -1 1z"/><path d="m35 60a.9902.9902 0 0 1 -.37109-.07129 1.0003 1.0003 0 0 1 -.55762-1.2998l2-5a1.00011 1.00011 0 0 1 1.85742.74218l-2 5a.9996.9996 0 0 1 -.92871.62891z"/><path d="m34 63a.99943.99943 0 0 1 -1-1v-3a1 1 0 0 1 2 0v3a.99943.99943 0 0 1 -1 1z"/><path d="m41.001 22a.99979.99979 0 0 1 -.60059-1.7998l4-3a.99961.99961 0 1 1 1.19922 1.5996l-4 3a.99094.99094 0 0 1 -.59863.2002z"/><path d="m39 28.00049a1.00076 1.00076 0 0 1 -.94824-1.3169l2-6a.99964.99964 0 1 1 1.89648.63282l-2 6a.99992.99992 0 0 1 -.94824.68408z"/><path d="m35.1416 29a.99991.99991 0 0 1 -.25-1.96777l3.85742-1a.99978.99978 0 0 1 .502 1.93554l-3.85743 1a.996.996 0 0 1 -.25199.03223z"/><path d="m41 34h-3a1 1 0 0 1 0-2h3a1 1 0 0 1 0 2z"/><path d="m41 41a.99943.99943 0 0 1 -1-1v-7a1 1 0 0 1 2 0v7a.99943.99943 0 0 1 -1 1z"/><path d="m45.999 45a.99656.99656 0 0 1 -.624-.21875l-5-4a1.00049 1.00049 0 1 1 1.25-1.5625l5 4a1.00007 1.00007 0 0 1 -.626 1.78125z"/><path d="m44.001 47a1.02894 1.02894 0 0 1 -.27539-.03809l-7-2a1.00029 1.00029 0 0 1 .54882-1.92382l7 2a1.00012 1.00012 0 0 1 -.27343 1.96191z"/><path d="m39.999 56a.99972.99972 0 0 1 -.91308-1.40625l4-9a1.00027 1.00027 0 1 1 1.82812.8125l-4 9a1.00154 1.00154 0 0 1 -.91504.59375z"/><path d="m44.001 64a1.00011 1.00011 0 0 1 -.89551-.55273l-4-8a1.00012 1.00012 0 0 1 1.78906-.89454l4 8a.99991.99991 0 0 1 -.89355 1.44727z"/><path d="m30 21c-1.68262 0-3-1.75684-3-4a1 1 0 0 1 2 0c0 1.2207.5918 2 1 2a1 1 0 0 1 0 2z"/><path d="m28 18.00049a1.00076 1.00076 0 0 1 -.94824-1.3169l1-3a.99964.99964 0 1 1 1.89648.63282l-1 3a.99992.99992 0 0 1 -.94824.68408z"/><path d="m29 17h-.666a1 1 0 1 1 0-2h.666a1 1 0 0 1 0 2z"/><path d="m29 15a1 1 0 0 1 -.707-1.707l2-2a.99989.99989 0 0 1 1.414 1.414l-2 2a.99676.99676 0 0 1 -.707.293z"/><path d="m30.13086 13.87012a.992.992 0 0 1 -.292-.044 3.97812 3.97812 0 0 1 -2.82813-3.82568 1 1 0 0 1 2 0 1.98735 1.98735 0 0 0 1.41211 1.9126 1.0004 1.0004 0 0 1 -.292 1.957z"/><path d="m28 23a.99974.99974 0 0 1 -1-1 3.00328 3.00328 0 0 1 3-3 1 1 0 0 1 0 2 1.001 1.001 0 0 0 -1 1 .99974.99974 0 0 1 -1 1z"/><path d="m28.999 30a1.00028 1.00028 0 0 1 -.98925-.8584l-1-7a1.0003 1.0003 0 0 1 1.98046-.2832l1 7a.99987.99987 0 0 1 -.84863 1.13135 1.01137 1.01137 0 0 1 -.14258.01025z"/><path d="m29.001 15a1.08271 1.08271 0 0 1 -.13086-.0083c-.33789-.04443-8.30664-1.22949-11.832-13.72022a.99949.99949 0 1 1 1.92382-.543c3.14649 11.144 9.88868 12.23974 10.17481 12.28076a1.00031 1.00031 0 0 1 -.13577 1.99076z"/><path d="m29 32a.99974.99974 0 0 1 -1-1v-2a1 1 0 0 1 2 0v2a.99974.99974 0 0 1 -1 1z"/><path d="m26 34a.99943.99943 0 0 1 -1-1 3.00328 3.00328 0 0 1 3-3 1 1 0 0 1 0 2 1.001 1.001 0 0 0 -1 1 .99943.99943 0 0 1 -1 1z"/><path d="m26 43a.99943.99943 0 0 1 -1-1v-9a1 1 0 0 1 2 0v9a.99943.99943 0 0 1 -1 1z"/><path d="m29 32h-1a1 1 0 0 1 0-2h1a1 1 0 0 1 0 2z"/><path d="m25.999 43a1 1 0 0 1 -.19531-1.98047l5-1a.99993.99993 0 1 1 .39258 1.96094l-5 1a.97907.97907 0 0 1 -.19727.01953z"/><path d="m27 55a.99943.99943 0 0 1 -1-1v-12.2002a1 1 0 0 1 2 0v12.2002a.99943.99943 0 0 1 -1 1z"/><path d="m29 60a.9996.9996 0 0 1 -.92871-.62891l-2-5a1.00011 1.00011 0 0 1 1.85742-.74218l2 5a1.0003 1.0003 0 0 1 -.55762 1.2998.9902.9902 0 0 1 -.37109.07129z"/><path d="m30 63a.99943.99943 0 0 1 -1-1v-3a1 1 0 0 1 2 0v3a.99943.99943 0 0 1 -1 1z"/><path d="m22.999 22a.99094.99094 0 0 1 -.59863-.2002l-4-3a.99961.99961 0 1 1 1.19922-1.5996l4 3a.99979.99979 0 0 1 -.60059 1.7998z"/><path d="m25 28.00049a.99992.99992 0 0 1 -.94824-.68408l-2-6a.99964.99964 0 1 1 1.89648-.63282l2 6a1.00076 1.00076 0 0 1 -.94824 1.3169z"/><path d="m28.8584 29a.996.996 0 0 1 -.252-.03223l-3.85743-1a.99978.99978 0 0 1 .502-1.93554l3.85742 1a.99991.99991 0 0 1 -.24999 1.96777z"/><path d="m26 34h-3a1 1 0 0 1 0-2h3a1 1 0 0 1 0 2z"/><path d="m23 41a.99943.99943 0 0 1 -1-1v-7a1 1 0 0 1 2 0v7a.99943.99943 0 0 1 -1 1z"/><path d="m18.001 45a1.00007 1.00007 0 0 1 -.626-1.78125l5-4a1.00049 1.00049 0 0 1 1.25 1.5625l-5 4a.99656.99656 0 0 1 -.624.21875z"/><path d="m19.999 47a1.00012 1.00012 0 0 1 -.27343-1.96191l7-2a1.00029 1.00029 0 1 1 .54882 1.92382l-7 2a1.02894 1.02894 0 0 1 -.27539.03809z"/><path d="m24.001 56a.99993.99993 0 0 1 -.915-.59375l-4-9a1.00027 1.00027 0 0 1 1.82812-.8125l4 9a.99972.99972 0 0 1 -.91312 1.40625z"/><path d="m19.999 64a.99991.99991 0 0 1 -.89355-1.44727l4-8a1.00012 1.00012 0 1 1 1.78906.89454l-4 8a1.00011 1.00011 0 0 1 -.89551.55273z"/><path d="m34 14h-4a1 1 0 0 1 0-2h4a1 1 0 0 1 0 2z"/><path d="m34 21h-4a1 1 0 0 1 0-2h4a1 1 0 0 1 0 2z"/><path d="m35 32h-6a1 1 0 0 1 0-2h6a1 1 0 0 1 0 2z"/><path d="m35.14258 29h-6.28516a1 1 0 0 1 0-2h6.28516a1 1 0 0 1 0 2z"/><path d="m33 42h-2a1 1 0 0 1 0-2h2a1 1 0 0 1 0 2z"/><path d="m32 42a.99943.99943 0 0 1 -1-1v-10a1 1 0 0 1 2 0v10a.99943.99943 0 0 1 -1 1z"/><path d="m34 63h-4a1 1 0 0 1 0-2h4a1 1 0 0 1 0 2z"/><path d="m35 60h-6a1 1 0 0 1 0-2h6a1 1 0 0 1 0 2z"/><path d="m32 64a.99943.99943 0 0 1 -1-1v-1a1 1 0 0 1 2 0v1a.99943.99943 0 0 1 -1 1z"/><path d="m37 55h-10a1 1 0 0 1 0-2h10a1 1 0 0 1 0 2z"/><path d="m37 51.01563h-10a1 1 0 0 1 0-2h10a1 1 0 0 1 0 2z"/><path d="m37 47.05566h-10a1 1 0 0 1 0-2h10a1 1 0 0 1 0 2z"/></g></svg>