<?xml version="1.0" encoding="iso-8859-1"?>
<!-- Generator: Adobe Illustrator 19.0.0, SVG Export Plug-In . SVG Version: 6.00 Build 0)  -->
<svg version="1.1" id="Layer_1" xmlns="http://www.w3.org/2000/svg" xmlns:xlink="http://www.w3.org/1999/xlink" x="0px" y="0px"
	 viewBox="0 0 512.129 512.129" style="enable-background:new 0 0 512.129 512.129;" xml:space="preserve">
<g transform="translate(1 1)">
	<g>
		<path style="fill:#FFE100;" d="M99.497,511.129c-2.518,0-4.197-0.839-5.875-2.518c-3.357-3.357-3.357-8.393,0-11.751
			l23.502-23.502l24.341-123.384c0.839-2.518,2.518-5.036,4.197-5.875l83.934-41.967c4.197-1.679,9.233,0,10.911,3.357
			c1.679,4.197,0,9.233-3.357,10.911l-80.577,40.289l-23.502,122.544c0,1.679-0.839,3.357-2.518,4.197l-25.18,25.18
			C103.694,510.289,102.015,511.129,99.497,511.129z"/>
		<path style="fill:#FFE100;" d="M116.284,292.899H82.71c-5.036,0-8.393-3.357-8.393-8.393c0-5.036,3.357-8.393,8.393-8.393h31.056
			l40.289-24.341c0.839-0.839,2.518-0.839,4.197-0.839h58.754c5.036,0,8.393,3.357,8.393,8.393s-3.357,8.393-8.393,8.393h-56.236
			l-40.289,24.341C119.641,292.899,117.963,292.899,116.284,292.899z"/>
		<path style="fill:#FFE100;" d="M217.005,234.145c-0.839,0-0.839,0-1.679,0l-41.967-8.393c-2.518-0.839-4.197-1.679-5.036-3.357
			l-31.895-47.843l-38.61-7.554c-2.518-0.839-4.197-1.679-5.036-3.357l-16.787-25.18c-2.518-4.197-1.679-9.233,2.518-11.751
			c4.197-2.518,9.233-1.679,11.751,2.518l15.108,22.662l37.77,6.715c2.518,0.839,4.197,1.679,5.036,3.357l31.895,47.843l38.61,7.554
			c4.197,0.839,7.554,5.036,6.715,10.072C224.559,231.627,221.202,234.145,217.005,234.145z"/>
		<path style="fill:#FFE100;" d="M300.94,234.145c-4.197,0-7.554-2.518-8.393-6.715s1.679-9.233,6.715-10.072l38.61-7.554
			l31.895-47.843c0.839-1.679,3.357-3.357,5.036-3.357l38.61-7.554l15.108-22.662c2.518-4.197,7.554-5.036,11.751-2.518
			c4.197,2.518,5.036,7.554,2.518,11.751l-16.787,25.18c-0.839,1.679-3.357,3.357-5.036,3.357l-38.61,7.554l-31.895,47.843
			c-0.839,1.679-3.357,3.357-5.036,3.357l-41.967,8.393C301.779,234.145,301.779,234.145,300.94,234.145z"/>
		<path style="fill:#FFE100;" d="M418.448,511.129c-2.518,0-4.197-0.839-5.875-2.518l-25.18-25.18
			c-0.839-0.839-1.679-2.518-2.518-4.197l-24.341-121.705l-80.577-40.289c-4.197-1.679-5.875-6.715-3.357-10.911
			c1.679-4.197,6.715-5.875,10.911-3.357l83.934,41.967c2.518,0.839,4.197,3.357,4.197,5.875l24.341,123.384l23.502,23.502
			c3.357,3.357,3.357,8.393,0,11.751C422.645,510.289,420.966,511.129,418.448,511.129z"/>
		<path style="fill:#FFE100;" d="M435.235,292.899h-33.574c-1.679,0-3.357,0-4.197-0.839l-40.289-24.341H300.94
			c-5.036,0-8.393-3.357-8.393-8.393s3.357-8.393,8.393-8.393h58.754c1.679,0,3.357,0,4.197,0.839l40.289,24.341h31.056
			c5.036,0,8.393,3.357,8.393,8.393C443.628,289.542,440.271,292.899,435.235,292.899z"/>
		<path style="fill:#FFE100;" d="M208.612,150.21c-4.197,0-8.393-3.357-8.393-7.554c0-0.839-4.197-51.2-33.574-51.2
			c-45.325,0-50.361-72.184-50.361-74.702c0-5.036,3.357-9.233,7.554-9.233c5.036,0,9.233,3.357,9.233,7.554
			c0,0.839,4.197,59.593,33.574,59.593c44.485,0,50.361,63.79,50.361,66.308C217.005,146.014,213.648,150.21,208.612,150.21
			C209.451,150.21,208.612,150.21,208.612,150.21z"/>
		<path style="fill:#FFE100;" d="M309.333,150.21L309.333,150.21c-5.036,0-8.393-4.197-8.393-9.233
			c0-2.518,5.875-66.308,50.361-66.308c29.377,0,33.574-58.754,33.574-59.593c0-5.036,4.197-8.393,9.233-7.554
			c5.036,0,8.393,4.197,7.554,9.233c0,3.357-5.036,74.702-50.361,74.702c-29.377,0-33.574,50.361-33.574,51.2
			C317.727,146.853,313.53,150.21,309.333,150.21z"/>
		<path style="fill:#FFE100;" d="M259.812,200.571h-18.466c-22.662,0-41.128-18.466-41.128-41.128v-18.466
			c0-22.662,18.466-41.128,41.128-41.128h18.466c22.662,0,41.128,18.466,41.128,41.128v18.466
			C300.94,182.106,282.474,200.571,259.812,200.571"/>
		<path style="fill:#FFE100;" d="M292.546,234.145c0,18.466-18.466,33.574-41.967,33.574s-41.967-15.108-41.967-33.574
			s18.466-33.574,41.967-33.574S292.546,215.679,292.546,234.145"/>
		<path style="fill:#FFE100;" d="M250.579,494.342L250.579,494.342c-32.734,0-58.754-26.02-58.754-58.754v-33.574
			c0-32.734,26.02-58.754,58.754-58.754s58.754,26.02,58.754,58.754v33.574C309.333,468.322,283.313,494.342,250.579,494.342"/>
		<path style="fill:#FFE100;" d="M250.579,343.26L250.579,343.26c-14.269,0-25.18-10.911-25.18-25.18v-25.18
			c0-14.269,10.911-25.18,25.18-25.18c14.269,0,25.18,10.911,25.18,25.18v25.18C275.759,332.348,264.848,343.26,250.579,343.26"/>
	</g>
	<g>
		<path style="fill:#FFA800;" d="M259.812,99.85h-16.787c22.662,0,41.128,18.466,41.128,41.128v18.466
			c0,22.662-18.466,41.128-41.128,41.128h16.787c22.662,0,41.128-18.466,41.128-41.128v-18.466
			C300.94,118.315,282.474,99.85,259.812,99.85"/>
		<path style="fill:#FFA800;" d="M250.579,200.571c-2.518,0-5.875,0-8.393,0.839c19.305,3.357,33.574,16.787,33.574,32.734
			s-14.269,30.216-33.574,32.734c2.518,0.839,5.875,0.839,8.393,0.839c23.502,0,41.967-15.108,41.967-33.574
			S274.081,200.571,250.579,200.571"/>
		<path style="fill:#FFA800;" d="M250.579,343.26c-2.518,0-5.875,0-8.393,0.839c28.538,4.197,50.361,28.538,50.361,57.915v33.574
			c0,29.377-21.823,53.718-50.361,57.915c2.518,0,5.875,0.839,8.393,0.839c32.734,0,58.754-26.02,58.754-58.754v-33.574
			C309.333,369.279,283.313,343.26,250.579,343.26"/>
		<path style="fill:#FFA800;" d="M250.579,267.719c-3.357,0-5.875,0.839-8.393,1.679c10.072,3.357,16.787,12.59,16.787,23.502v25.18
			c0,10.911-6.715,20.144-16.787,23.502c2.518,0.839,5.036,1.679,8.393,1.679c14.269,0,25.18-10.911,25.18-25.18v-25.18
			C275.759,278.63,264.848,267.719,250.579,267.719"/>
	</g>
	<g>
		<path style="fill:#FFFFFF;" d="M241.346,99.85h16.787c-22.662,0-41.128,18.466-41.128,41.128v18.466
			c0,22.662,18.466,41.128,41.128,41.128h-16.787c-22.662,0-41.128-18.466-41.128-41.128v-18.466
			C200.218,118.315,218.684,99.85,241.346,99.85"/>
		<path style="fill:#FFFFFF;" d="M250.579,200.571c2.518,0,5.875,0,8.393,0.839c-19.305,3.357-33.574,16.787-33.574,32.734
			s14.269,30.216,33.574,32.734c-2.518,0.839-5.875,0.839-8.393,0.839c-23.502,0-41.967-15.108-41.967-33.574
			S227.077,200.571,250.579,200.571"/>
		<path style="fill:#FFFFFF;" d="M250.579,343.26c2.518,0,5.875,0,8.393,0.839c-28.538,4.197-50.361,28.538-50.361,57.915v33.574
			c0,29.377,21.823,53.718,50.361,57.915c-2.518,0-5.875,0.839-8.393,0.839c-32.734,0-58.754-26.02-58.754-58.754v-33.574
			C191.825,369.279,217.845,343.26,250.579,343.26"/>
		<path style="fill:#FFFFFF;" d="M250.579,267.719c3.357,0,5.875,0.839,8.393,1.679c-10.072,3.357-16.787,12.59-16.787,23.502v25.18
			c0,10.911,6.715,20.144,16.787,23.502c-2.518,0.839-5.036,1.679-8.393,1.679c-14.269,0-25.18-10.911-25.18-25.18v-25.18
			C225.399,278.63,236.31,267.719,250.579,267.719"/>
	</g>
	<path d="M259.812,208.965h-18.466c-27.698,0-49.521-22.662-49.521-49.521v-18.466c0-27.698,22.662-49.521,49.521-49.521h18.466
		c27.698,0,49.521,22.662,49.521,49.521v18.466C309.333,186.302,286.671,208.965,259.812,208.965z M241.346,108.243
		c-18.466,0-32.734,15.108-32.734,32.734v18.466c0,18.466,15.108,32.734,32.734,32.734h18.466c18.466,0,32.734-15.108,32.734-32.734
		v-18.466c0-18.466-15.108-32.734-32.734-32.734H241.346z"/>
	<path d="M250.579,276.112c-27.698,0-50.361-18.466-50.361-41.967s22.662-41.967,50.361-41.967s50.361,18.466,50.361,41.967
		S278.277,276.112,250.579,276.112z M250.579,208.965c-18.466,0-33.574,10.911-33.574,25.18s15.108,25.18,33.574,25.18
		s33.574-10.911,33.574-25.18S269.045,208.965,250.579,208.965z"/>
	<path d="M250.579,502.735c-36.931,0-67.148-30.216-67.148-67.148v-33.574c0-36.931,30.216-67.148,67.148-67.148
		s67.148,30.216,67.148,67.148v33.574C317.727,472.519,287.51,502.735,250.579,502.735z M250.579,351.653
		c-27.698,0-50.361,22.662-50.361,50.361v33.574c0,27.698,22.662,50.361,50.361,50.361s50.361-22.662,50.361-50.361v-33.574
		C300.94,374.315,278.277,351.653,250.579,351.653z"/>
	<path d="M91.104,502.735c-2.518,0-4.197-0.839-5.875-2.518c-3.357-3.357-3.357-8.393,0-11.751l23.502-23.502l24.341-123.384
		c0.839-2.518,2.518-5.036,4.197-5.875l83.934-41.967c4.197-1.679,9.233,0,10.911,3.357c1.679,4.197,0,9.233-3.357,10.911
		l-80.577,40.289L124.677,470.84c0,1.679-0.839,3.357-2.518,4.197l-25.18,25.18C95.3,501.896,93.622,502.735,91.104,502.735z"/>
	<path d="M107.891,284.506H74.317c-5.036,0-8.393-3.357-8.393-8.393c0-5.036,3.357-8.393,8.393-8.393h31.056l40.289-24.341
		c0.839-0.839,2.518-0.839,4.197-0.839h58.754c5.036,0,8.393,3.357,8.393,8.393s-3.357,8.393-8.393,8.393h-56.236l-40.289,24.341
		C111.248,284.506,109.569,284.506,107.891,284.506z"/>
	<path d="M208.612,225.751c-0.839,0-0.839,0-1.679,0l-41.967-8.393c-2.518-0.839-4.197-1.679-5.036-3.357l-31.895-47.843
		l-38.61-7.554c-2.518-0.839-4.197-1.679-5.036-3.357l-16.787-25.18c-2.518-4.197-1.679-9.233,2.518-11.751
		c4.197-2.518,9.233-1.679,11.751,2.518l15.108,22.662l37.77,6.715c2.518,0.839,4.197,1.679,5.036,3.357l31.895,47.843l38.61,7.554
		c4.197,0.839,7.554,5.036,6.715,10.072C216.166,223.233,212.809,225.751,208.612,225.751z"/>
	<path d="M292.546,225.751c-4.197,0-7.554-2.518-8.393-6.715c-0.839-4.197,1.679-9.233,6.715-10.072l38.61-7.554l31.895-47.843
		c0.839-1.679,3.357-3.357,5.036-3.357l38.61-7.554l15.108-22.662c2.518-4.197,7.554-5.036,11.751-2.518s5.036,7.554,2.518,11.751
		l-16.787,25.18c-0.839,1.679-3.357,3.357-5.036,3.357l-38.61,7.554l-31.895,47.843c-0.839,1.679-3.357,3.357-5.036,3.357
		l-41.967,8.393C293.386,225.751,293.386,225.751,292.546,225.751z"/>
	<path d="M242.186,108.243c-18.466,0-33.574-15.108-33.574-33.574c0-0.839-0.839-16.787,7.554-26.02
		c5.036-5.036,10.911-7.554,17.626-7.554c5.036,0,8.393,3.357,8.393,8.393s-3.357,8.393-8.393,8.393
		c-3.357,0-4.197,0.839-5.036,1.679c-3.357,3.357-3.357,11.751-3.357,14.269c0,10.072,7.554,17.626,16.787,17.626
		c5.036,0,8.393,3.357,8.393,8.393C250.579,104.886,247.222,108.243,242.186,108.243z"/>
	<path d="M410.054,502.735c-2.518,0-4.197-0.839-5.875-2.518l-25.18-25.18c-0.839-0.839-1.679-2.518-2.518-4.197L352.14,349.135
		l-80.577-40.289c-4.197-1.679-5.875-6.715-3.357-10.911c1.679-4.197,6.715-5.875,10.911-3.357l83.934,41.967
		c2.518,0.839,4.197,3.357,4.197,5.875l24.341,123.384l23.502,23.502c3.357,3.357,3.357,8.393,0,11.751
		C414.251,501.896,412.572,502.735,410.054,502.735z"/>
	<path d="M426.841,284.506h-33.574c-1.679,0-3.357,0-4.197-0.839l-40.289-24.341h-56.236c-5.036,0-8.393-3.357-8.393-8.393
		s3.357-8.393,8.393-8.393H351.3c1.679,0,3.357,0,4.197,0.839l40.289,24.341h31.056c5.036,0,8.393,3.357,8.393,8.393
		C435.235,281.148,431.877,284.506,426.841,284.506z"/>
	<path d="M250.579,351.653c-18.466,0-33.574-15.108-33.574-33.574v-25.18c0-18.466,15.108-33.574,33.574-33.574
		s33.574,15.108,33.574,33.574v25.18C284.153,336.545,269.045,351.653,250.579,351.653z M250.579,276.112
		c-9.233,0-16.787,7.554-16.787,16.787v25.18c0,9.233,7.554,16.787,16.787,16.787c9.233,0,16.787-7.554,16.787-16.787v-25.18
		C267.366,283.666,259.812,276.112,250.579,276.112z"/>
	<path d="M200.218,141.817c-4.197,0-8.393-3.357-8.393-7.554c0-0.839-4.197-51.2-33.574-51.2c-45.325,0-50.361-72.184-50.361-74.702
		c0-5.036,3.357-9.233,7.554-9.233c5.036,0,9.233,3.357,9.233,7.554c0,0.839,4.197,59.593,33.574,59.593
		c44.485,0,50.361,63.79,50.361,66.308C208.612,137.62,205.254,141.817,200.218,141.817
		C201.058,141.817,200.218,141.817,200.218,141.817z"/>
	<path d="M258.972,108.243c-5.036,0-8.393-3.357-8.393-8.393c0-5.036,3.357-8.393,8.393-8.393c9.233,0,16.787-7.554,16.787-16.787
		c0-3.357,0-10.911-3.357-15.108c-0.839-0.839-2.518-1.679-5.036-1.679c-5.036,0-8.393-3.357-8.393-8.393s3.357-8.393,8.393-8.393
		c6.715,0,12.59,2.518,17.626,7.554c8.393,9.233,7.554,25.18,7.554,26.859C292.546,93.135,277.438,108.243,258.972,108.243z"/>
	<path d="M300.94,141.817L300.94,141.817c-5.036,0-8.393-4.197-8.393-9.233c0-2.518,5.875-66.308,50.361-66.308
		c29.377,0,33.574-58.754,33.574-59.593c0-5.036,4.197-8.393,9.233-7.554c5.036,0,8.393,4.197,7.554,9.233
		c0,2.518-5.036,74.702-50.361,74.702c-29.377,0-33.574,50.361-33.574,51.2C309.333,138.46,305.136,141.817,300.94,141.817z"/>
</g>
<g>
</g>
<g>
</g>
<g>
</g>
<g>
</g>
<g>
</g>
<g>
</g>
<g>
</g>
<g>
</g>
<g>
</g>
<g>
</g>
<g>
</g>
<g>
</g>
<g>
</g>
<g>
</g>
<g>
</g>
</svg>
