<?xml version="1.0" encoding="iso-8859-1"?>
<!-- Generator: Adobe Illustrator 19.0.0, SVG Export Plug-In . SVG Version: 6.00 Build 0)  -->
<svg version="1.1" id="Capa_1" xmlns="http://www.w3.org/2000/svg" xmlns:xlink="http://www.w3.org/1999/xlink" x="0px" y="0px"
	 viewBox="0 0 512 512" style="enable-background:new 0 0 512 512;" xml:space="preserve">
<g>
	<g transform="translate(0 1)">
		<g>
			<rect x="51.2" y="419.949" style="fill:#D84315;" width="51.2" height="82.517"/>
			<rect x="409.6" y="419.949" style="fill:#D84315;" width="51.2" height="82.517"/>
		</g>
		<g>
			<rect x="51.2" y="419.949" style="fill:#FF5722;" width="25.6" height="82.517"/>
			<rect x="409.6" y="419.949" style="fill:#FF5722;" width="25.6" height="82.517"/>
		</g>
		<path style="fill:#D84315;" d="M503.467,511H8.533C3.821,511,0,507.18,0,502.467c0-4.713,3.821-8.533,8.533-8.533h494.933
			c4.713,0,8.533,3.821,8.533,8.533C512,507.18,508.18,511,503.467,511z"/>
		<polygon style="fill:#FFB301;" points="503.467,246.467 477.867,246.467 503.467,348.867 477.867,348.867 503.467,451.267 
			8.533,451.267 34.133,348.867 8.533,348.867 34.133,246.467 8.533,246.467 34.133,144.067 8.533,144.067 34.133,41.667 
			34.133,16.067 477.867,16.067 477.867,41.667 503.467,144.067 477.867,144.067 		"/>
		<polygon style="fill:#FEC108;" points="477.867,246.467 452.267,246.467 477.867,348.867 452.267,348.867 477.867,451.267 
			8.533,451.267 34.133,348.867 8.533,348.867 34.133,246.467 8.533,246.467 34.133,144.067 8.533,144.067 34.133,16.067 
			452.267,16.067 452.267,41.667 477.867,144.067 452.267,144.067 		"/>
		<g>
			<polygon style="fill:#F57C00;" points="503.467,144.067 8.533,144.067 34.133,41.667 477.867,41.667 			"/>
			<polygon style="fill:#F57C00;" points="503.467,348.867 8.533,348.867 34.133,246.467 477.867,246.467 			"/>
		</g>
		<g>
			<polygon style="fill:#FF9801;" points="477.867,144.067 8.533,144.067 34.133,41.667 452.267,41.667 			"/>
			<polygon style="fill:#FF9801;" points="477.867,348.867 8.533,348.867 34.133,246.467 452.267,246.467 			"/>
		</g>
		<g>
			<path style="fill:#D84315;" d="M290.133,417.133v34.133h-68.267l0-34.133c-0.024-13.9,8.429-26.409,21.333-31.573
				c4.046-1.722,8.403-2.594,12.8-2.56C274.851,383,290.133,398.282,290.133,417.133z"/>
			<path style="fill:#D84315;" d="M17.067,7.533h477.867c4.713,0,8.533,3.821,8.533,8.533v17.067c0,4.713-3.821,8.533-8.533,8.533
				H17.067c-4.713,0-8.533-3.821-8.533-8.533V16.067C8.533,11.354,12.354,7.533,17.067,7.533z"/>
		</g>
		<g>
			<path style="fill:#FF5722;" d="M264.533,417.133l0,34.133h-42.667l0-34.133c-0.024-13.9,8.429-26.409,21.333-31.573
				C256.105,390.724,264.557,403.234,264.533,417.133z"/>
			<path style="fill:#FF5722;" d="M17.067,7.533h452.267c4.713,0,8.533,3.821,8.533,8.533v17.067c0,4.713-3.821,8.533-8.533,8.533
				H17.067c-4.713,0-8.533-3.821-8.533-8.533V16.067C8.533,11.354,12.354,7.533,17.067,7.533z"/>
		</g>
	</g>
	<path d="M494.933,0H17.067C7.641,0,0,7.641,0,17.067v17.067C0,43.559,7.641,51.2,17.067,51.2h6.144L0.256,142.993
		c-0.639,2.55-0.067,5.251,1.55,7.323c1.617,2.072,4.099,3.283,6.727,3.284h14.677L0.256,245.393
		c-0.639,2.55-0.067,5.251,1.55,7.323C3.423,254.789,5.905,256,8.533,256h14.677L0.256,347.793c-0.639,2.55-0.067,5.251,1.55,7.323
		c1.617,2.072,4.099,3.283,6.727,3.284h14.677L0.256,450.193c-0.639,2.55-0.067,5.251,1.55,7.323s4.099,3.283,6.727,3.284h34.133
		v34.133H8.533c-4.713,0-8.533,3.821-8.533,8.533C0,508.18,3.821,512,8.533,512h494.933c4.713,0,8.533-3.82,8.533-8.533
		c0-4.713-3.82-8.533-8.533-8.533h-34.133V460.8h34.133c2.628,0,5.11-1.211,6.727-3.284c1.617-2.072,2.189-4.774,1.55-7.323
		L488.789,358.4h14.677c2.628,0,5.11-1.211,6.727-3.284c1.617-2.072,2.189-4.774,1.55-7.323L488.789,256h14.677
		c2.628,0,5.11-1.211,6.727-3.283c1.617-2.072,2.189-4.774,1.55-7.323L488.789,153.6h14.677c2.628,0,5.11-1.211,6.727-3.284
		c1.617-2.072,2.189-4.774,1.55-7.323L488.789,51.2h6.144c9.426,0,17.067-7.641,17.067-17.067V17.067C512,7.641,504.359,0,494.933,0
		z M59.733,494.933V460.8h34.133v34.133H59.733z M221.867,460.8h179.2v34.133H110.933V460.8H221.867z M281.6,443.733h-51.2v-25.6
		c0-14.138,11.462-25.6,25.6-25.6c14.139,0,25.6,11.462,25.6,25.6V443.733z M452.267,494.933h-34.133V460.8h34.133V494.933z
		 M492.536,136.533h-40.269c-4.713,0-8.533,3.821-8.533,8.533c0,4.713,3.82,8.533,8.533,8.533h18.944l21.333,85.333h-40.277
		c-4.713,0-8.533,3.821-8.533,8.533c0,4.713,3.82,8.533,8.533,8.533h18.944l21.333,85.333h-40.277c-4.713,0-8.533,3.821-8.533,8.533
		c0,4.713,3.82,8.533,8.533,8.533h18.944l21.333,85.333H298.667v-25.6c0-23.564-19.103-42.667-42.667-42.667
		c-23.564,0-42.667,19.103-42.667,42.667v25.6H19.465L40.798,358.4h360.269c4.713,0,8.533-3.821,8.533-8.533
		c0-4.713-3.821-8.533-8.533-8.533H19.465L40.798,256h360.269c4.713,0,8.533-3.82,8.533-8.533c0-4.713-3.821-8.533-8.533-8.533
		H19.465L40.798,153.6h360.269c4.713,0,8.533-3.821,8.533-8.533c0-4.713-3.821-8.533-8.533-8.533H19.465L40.798,51.2h430.404
		L492.536,136.533z M477.867,34.133h-460.8V17.067h477.867v17.067H477.867z"/>
</g>
<g>
</g>
<g>
</g>
<g>
</g>
<g>
</g>
<g>
</g>
<g>
</g>
<g>
</g>
<g>
</g>
<g>
</g>
<g>
</g>
<g>
</g>
<g>
</g>
<g>
</g>
<g>
</g>
<g>
</g>
</svg>
