<svg id="Layer_1" enable-background="new 0 0 512.003 512.003" height="512" viewBox="0 0 512.003 512.003" width="512" xmlns="http://www.w3.org/2000/svg"><g><g><g><ellipse cx="254.225" cy="137.388" fill="#61818c" rx="36.779" ry="36.691"/><path d="m204.141 217.741c-3.24 3.969-26.436 36.052-26.436 93.447 0 29.746 48.896 53.299 76.52 52.746 27.624.553 78.824-27 78.824-52.746 0-60.968-26.361-93.375-26.779-93.858z" fill="#61818c"/><path d="m306.27 217.329-29.901.12c1.739 2.153 26.68 34.424 26.68 93.738 0 17.252-5.03 31.775-12.786 43.568 22.143-10.147 42.786-27.221 42.786-43.568 0-60.968-26.361-93.375-26.779-93.858z" fill="#4e7380"/><g><g><path d="m255.993 165.434c-38.307 0-70.344 41.086-70.344 41.086 0 34.694 31.054 62.819 69.36 62.819s69.36-28.125 69.36-62.819c0-.001-30.069-41.086-68.376-41.086z" fill="#9eb1b8"/></g><g><path d="m255.551 180.945c44.606 0 68.818 27.457 68.818 27.457 0-35.734-31.054-64.702-69.36-64.702s-69.36 28.968-69.36 64.702c0 0 25.296-27.457 69.902-27.457z" fill="#ffdc5c"/></g></g><g><path d="m213.548 211.788s-78.586-47.812-152.653-57.219c-74.066-9.407-62.436 44.414-17.496 53.864 28.419 5.976 30.443 54.934 77.558 42.728 21.579-5.59 39.134-29.791 60.777-32.424 14.833-1.805 34.126 2.099 31.814-6.949z" fill="#e1f8fc"/></g><g><path d="m298.438 211.788s78.586-47.812 152.653-57.219c74.066-9.407 62.436 44.414 17.496 53.864-28.419 5.976-30.443 54.934-77.558 42.728-21.579-5.59-39.134-29.791-60.777-32.424-14.832-1.805-34.126 2.099-31.814-6.949z" fill="#e1f8fc"/></g><path d="m451.09 154.569c-.056.007-.113.016-.169.023 39.49 7.096 25.207 45.947-12.335 53.841-21.364 4.493-27.814 33.273-49.715 42.101.715.228 1.433.439 2.157.627 47.115 12.206 49.139-36.752 77.558-42.728 44.941-9.45 56.571-63.271-17.496-53.864z" fill="#d4f6fc"/></g></g><path d="m255.377 392.939c27.624.553 76.148-20.634 77.672-81.752.017-.688.011-1.354.021-2.035-17.154 13.539-43.004 26.977-78.061 26.977-34.431 0-60.168-13.551-77.329-27.146.01.737.006 1.459.025 2.204 1.523 61.118 50.048 82.305 77.672 81.752z" fill="#ffdc5c"/><g><path d="m301.415 327.452c-7.263 39.836-36.828 58.669-61.038 63.916 5.363 1.162 10.464 1.662 15 1.571 27.624.553 76.148-20.634 77.672-81.752.017-.688.011-1.354.021-2.035-8.43 6.654-18.965 13.279-31.655 18.3z" fill="#ffce47"/></g><path d="m511.642 171.204c-11.09-57.009-152.742-1.188-182.811 15.723-1.477-4.661-3.483-9.153-5.964-13.417l64.19-64.72c2.917-2.941 2.897-7.689-.044-10.606-2.938-2.917-7.688-2.897-10.606.044l-62.552 63.068c-4.851-5.282-10.45-9.816-16.591-13.512 4.103-15.949-2.086-33.825-14.179-43.865 3.967-7.974 21.019-35.172 67.132-30.399 4.131.421 7.806-2.569 8.231-6.689.427-4.12-2.568-7.806-6.688-8.232-43.567-3.674-67.371 12.962-81.55 37.592-9.139-3.545-19.624-3.925-29-1.042-14.422-24.039-37.899-40.172-80.987-36.551-4.121.427-7.116 4.113-6.689 8.233.426 4.12 4.114 7.109 8.231 6.689 43.016-4.449 60.622 18.592 66.092 28.391-13.964 9.951-21.311 29.541-16.442 46.81-5.245 3.316-10.038 7.213-14.251 11.602l-61.588-62.096c-2.918-2.942-7.667-2.96-10.606-.044-2.941 2.917-2.961 7.666-.044 10.606l62.972 63.491c-2.662 4.334-4.836 8.959-6.451 13.823-27.375-13.318-67.02-29.86-107.14-37.053-4.075-.729-7.975 1.981-8.705 6.059-.731 4.077 1.981 7.975 6.059 8.706 50.233 9.006 101.14 34.132 124.615 46.832-22.28-.998-33.647 5.336-51.273 18.51-11.603 8.416-23.181 16.474-38.144 16.472-17.865.324-26.417-14.835-37.021-27.469 8.658-.783 17.385-3.425 23.136-9.885 2.755-3.093 2.479-7.834-.614-10.588-3.095-2.755-7.835-2.479-10.589.614-6.619 7.436-27.472 5.138-36.536 2.86-18.815-3.813-30.59-16.6-30.23-26.057.293-9.608 13.435-12.577 19.071-13.408 4.098-.604 6.93-4.416 6.326-8.513-.604-4.099-4.417-6.93-8.514-6.327-19.517 2.876-31.434 13.265-31.877 27.791-.556 18.25 17.313 35.87 41.604 41.069 9.571 2.429 15.662 10.602 21.487 17.971 24.634 35.421 56.636 33.721 90.708 7.609 9.417-6.831 18.338-13.29 27.459-14.9.984 3.065 2.189 6.035 3.594 8.899 0 0-59.358 48.513-59.358 48.513-.836.683-1.514 1.538-1.989 2.507l-36.27 74.019c-4.005 9.148 8.579 15.153 13.471 6.6 0 0 35.549-72.549 35.549-72.549l39.199-32.037c-1.666 6.601-3.062 13.858-4.006 21.752l-36.128 60.323c-.545.91-.891 1.926-1.015 2.979l-11.514 98.135c-.482 4.114 2.461 7.84 6.575 8.323 4.051.48 7.845-2.502 8.323-6.575l11.326-96.537 21.334-35.621c3.548 56.199 44.108 84.303 85.014 85.311 15.395.265 30.902-4.758 43.947-12.761 3.53-2.167 4.637-6.784 2.471-10.315-2.167-3.531-6.786-4.637-10.314-2.471-40.217 24.757-95.912 4.05-105.071-50.664 41.047 25.916 96.987 25.604 137.919.121-1.372 8.464-3.861 16.253-7.458 23.261-1.891 3.685-.437 8.206 3.248 10.097 3.482 1.787 8.3.253 10.098-3.248 6.206-12.092 9.649-25.962 10.262-41.245l22.479 37.534 11.326 96.537c.478 4.073 4.272 7.054 8.323 6.575 4.114-.482 7.058-4.209 6.575-8.323l-11.514-98.135c-.124-1.054-.47-2.069-1.015-2.979-12.377-20.666-23.349-43.487-37.677-62.836-.994-7.422-2.381-14.266-4.01-20.508l40.751 33.306 35.549 72.549c4.846 8.515 17.48 2.605 13.471-6.601 0 0-36.27-74.019-36.27-74.019-.476-.969-1.153-1.824-1.989-2.507 0 0-60.768-49.666-60.768-49.666 1.208-2.589 2.255-5.261 3.124-8.01 22.89 2.551 38.086 26.529 60.312 32.287 26.247 6.799 43.997-4.823 59.735-24.733 5.839-7.388 11.917-15.548 21.506-17.976 25.972-5.563 44.462-25.482 41.258-44.504zm-256.633 90.634c-24.105 0-48.647-13.292-58.058-36.194 9.935-.045 17.778-.27 22.032-5.77 7.513-9.711-3.136-15.545-10.052-19.427 26.595-15.831 67.297-15.873 93.421.393-6.806 3.839-16.479 9.813-9.348 19.034 3.97 5.132 11.067 5.669 20.072 5.755-8.797 21.434-31.788 36.209-58.067 36.209zm-30.063-124.449c0-16.096 13.134-29.191 29.278-29.191 17.316 0 31.233 15.759 29.033 32.939-18.188-6.754-40.104-6.515-57.986.615-.214-1.434-.325-2.89-.325-4.363zm30.063 13.812c25.57-.281 51.22 15.229 59.224 39.337-33.474-23.038-85.647-22.111-118.574.371 7.649-23.246 31.874-39.708 59.35-39.708zm-4.898 177.33c-23.556-.933-46.094-9.169-64.944-23.273.12-18.637 3.155-37.424 9.751-54.89 29.551 35.233 91.547 34.937 120.691-.582 5.214 13.615 9.846 32.239 9.976 55.629-21.764 16.219-48.379 24.187-75.474 23.116zm187.004-104.144c-11.353 14.361-20.318 25.703-44.206 19.514-30.936-9.626-38.554-35.947-77.2-33.253 25.299-13.684 82.453-41.796 136.327-48.638 19.352-2.459 42.699-.873 44.815 11.686 1.404 8.341-8.403 22.897-29.809 27.398-9.969 2.105-28.902 6.113-36.829-2.792-6.24-7.01-17.73 2.646-11.203 9.974 5.752 6.461 14.478 9.103 23.135 9.885-1.718 2.044-3.382 4.141-5.03 6.226z"/></g></svg>