<?xml version="1.0" encoding="iso-8859-1"?>
<!-- Generator: Adobe Illustrator 19.0.0, SVG Export Plug-In . SVG Version: 6.00 Build 0)  -->
<svg xmlns="http://www.w3.org/2000/svg" xmlns:xlink="http://www.w3.org/1999/xlink" version="1.1" id="Layer_1" x="0px" y="0px" viewBox="0 0 500.138 500.138" style="enable-background:new 0 0 500.138 500.138;" xml:space="preserve" width="512" height="512">
<g>
	<g>
		<path style="fill:#70D65B;" d="M455.232,113.785c62.15,62.16-76.48,120.28-118.82,133.45c-16.79-32.83-43.62-59.67-76.45-76.45    c-5.32-2.72-10.72-5.15-16.18-7.25c25.5-64.99,33.32-177.07,101.08-140.58c10.68,5.75,17.26,13,20.77,21.15    c32.93-32.6,71.56-52.62,104.34-19.84C498.782,53.075,484.052,85.225,455.232,113.785z"/>
		<path style="fill:#FF8040;" d="M210.491,155.231C95.184,142.642-3.101,469.607,17.243,489.951s347.309-77.942,334.72-193.248    c-1.855-16.994-7.415-33.567-15.547-49.473c-16.787-32.835-43.617-59.666-76.453-76.453    C244.057,162.646,227.485,157.086,210.491,155.231z"/>
		<path style="fill:#ED761D;" d="M17.246,489.954c-20.351-20.351,77.93-347.31,193.245-334.723    c16.992,1.86,33.567,7.417,49.476,15.549c16.405,8.386,31.318,19.297,44.222,32.202c-4.928-4.929-11.851-7.849-20.605-8.584    c-8.485-0.707-18.222,0.573-29.387,4.54C178.402,225.87,9.467,482.175,17.246,489.954z"/>
		<path style="fill:#58B741;" d="M365.636,44.1c-41.66,41.26-74.19,102.65-74.19,102.65l-17.06,32.29    c-4.66-2.97-9.47-5.73-14.42-8.26c-5.32-2.72-10.72-5.15-16.18-7.25c25.5-64.99,33.32-177.07,101.08-140.58    C355.546,28.7,362.126,35.95,365.636,44.1z"/>
	</g>
	<g>
		<path d="M475.276,18.952C460.71,4.386,443.975-1.835,425.545,0.467c-18.115,2.261-37.623,12.89-58.21,31.673    c-4.603-6.206-10.932-11.495-18.914-15.793c-16.044-8.64-30.575-10.307-43.188-4.956c-28.099,11.921-40.064,54.44-52.731,99.456    c-4.139,14.707-8.4,29.834-13.158,43.142c-9.449-3.122-18.822-5.208-28.039-6.213c-31.343-3.427-63.204,14.937-94.705,54.565    c-31.031,39.039-54.889,90.139-69.438,126.133c-1.552,3.84,0.303,8.212,4.143,9.764c3.838,1.551,8.211-0.302,9.764-4.143    c5.811-14.377,13.138-31.215,21.818-48.67l29.728,29.727c1.464,1.464,3.384,2.197,5.303,2.197s3.839-0.732,5.303-2.197    c2.929-2.929,2.929-7.678,0-10.606l-33.129-33.128c11.024-20.727,23.854-41.633,38.25-59.743    c8.887-11.18,17.701-20.467,26.419-27.857c7.885,6.465,25.255,21.756,44.181,45.186c1.482,1.834,3.651,2.788,5.839,2.788    c1.655,0,3.321-0.545,4.708-1.666c3.222-2.603,3.724-7.325,1.122-10.547c-17.807-22.045-34.189-37.13-43.495-45.005    c14.53-9.406,28.755-13.394,42.561-11.886c15.173,1.656,30.943,6.625,46.873,14.769c31.23,15.967,57.223,41.959,73.189,73.189    c8.144,15.93,13.113,31.7,14.77,46.873c2.118,19.401-6.32,49.677-55.91,86.657c-16.833-28.951-43.242-51.651-44.419-52.655    c-3.152-2.687-7.883-2.309-10.57,0.84c-2.688,3.15-2.313,7.883,0.836,10.573c0.272,0.232,26.39,22.713,41.865,49.962    c-39.756,26.896-96.475,53.22-155.704,72.257c-24.488,7.871-48.174,14.013-66.697,17.295c-21.534,3.815-29.154,2.602-31.201,2.04    c-0.629-2.292-2.078-11.56,3.605-39.384c4.799-23.499,13.141-52.402,23.49-81.385c1.393-3.901-0.641-8.192-4.542-9.585    c-3.899-1.391-8.193,0.64-9.585,4.542c-11.088,31.056-19.854,61.791-24.682,86.543c-7.102,36.409-3.225,45.866,0.946,50.037    c1.575,1.575,4.882,4.885,17.98,4.884c11.197,0,29.55-2.419,60.085-10.409c42.179-11.037,89.572-28.491,130.028-47.887    c42.449-20.352,76.008-41.907,99.745-64.066c29.254-27.31,42.591-54.86,39.64-81.886c-1.578-14.456-5.798-29.292-12.547-44.211    c15.312-5.3,36.238-13.818,56.599-24.516c3.667-1.926,5.078-6.461,3.151-10.127c-1.926-3.667-6.461-5.077-10.127-3.151    c-20.525,10.784-41.594,19.253-56.431,24.273c-17.555-31.491-44.577-57.641-76.687-74.057c-3.343-1.709-6.685-3.29-10.022-4.746    c4.977-13.868,9.344-29.373,13.585-44.445c11.151-39.626,22.682-80.602,44.151-89.71c8.33-3.534,18.215-2.109,30.219,4.354    c6.837,3.681,11.822,8.026,15.131,13.189c-3.27,3.375-6.563,6.939-9.881,10.708c-22.229,25.252-40.722,53.77-52.32,73.247    c-2.12,3.559-0.953,8.162,2.606,10.281c3.561,2.12,8.163,0.952,10.281-2.606c11.274-18.932,29.221-46.62,50.691-71.01    c25.809-29.317,49.22-45.47,69.584-48.011c13.796-1.724,25.985,2.926,37.267,14.207c10.562,10.562,14.813,21.685,12.999,34.005    c-4.511,30.617-48.085,70.188-119.55,108.568c-3.649,1.96-5.019,6.507-3.059,10.156c1.354,2.521,3.94,3.953,6.614,3.953    c1.198,0,2.413-0.288,3.542-0.894c20.964-11.259,51.303-29.024,76.785-49.723c4.583-3.723,8.857-7.42,12.829-11.09    c6.606,8.247,9.407,16.433,8.527,24.871c-1.649,15.81-16.668,33.386-43.434,50.827c-3.47,2.261-4.45,6.908-2.189,10.378    c1.438,2.207,3.84,3.406,6.291,3.406c1.404,0,2.824-0.394,4.088-1.217c31.121-20.28,47.998-41.085,50.163-61.838    c1.341-12.858-2.954-25.285-12.755-37.027c15.682-16.781,24.739-32.919,26.988-48.185C495.027,48.65,489.23,32.905,475.276,18.952    z"/>
		<path d="M139.621,431.175c1.919,0,3.839-0.732,5.303-2.197c2.929-2.929,2.929-7.678,0-10.606l-29.321-29.321    c-2.929-2.929-7.678-2.929-10.606,0c-2.929,2.929-2.929,7.678,0,10.606l29.321,29.321    C135.782,430.443,137.702,431.175,139.621,431.175z"/>
	</g>
</g>















</svg>
