<svg id="icons" enable-background="new 0 0 64 64" height="512" viewBox="0 0 64 64" width="512" xmlns="http://www.w3.org/2000/svg"><g><g><g><path d="m32 61.496c-.553 0-1-.447-1-1v-31.996c0-.553.447-1 1-1s1 .447 1 1v31.996c0 .553-.447 1-1 1z" fill="#8cc152"/></g></g><g><path d="m32.005 19.498c1.11 0 2 3.141 2 7 0 3.871-.89 7.01-2 7.01-1.1 0-2-3.139-2-7.01 0-3.859.9-7 2-7z" fill="#e6e9ed"/></g><g><path d="m34.005 8.5c0 3.82-.87 6.941-1.96 7-.01 0-.03 0-.04 0s-.03 0-.04 0c-1.08-.07-1.96-3.18-1.96-7 0-3.859.9-7 2-7 1.11 0 2 3.141 2 7z" fill="#e6e9ed"/></g><g><path d="m33.414 18.914c.785-.785 3.635.805 6.364 3.535 2.736 2.736 4.328 5.586 3.543 6.371-.777.777-3.635-.807-6.371-3.543-2.73-2.728-4.313-5.586-3.536-6.363z" fill="#e6e9ed"/></g><g><path d="m27.052 9.723c2.701 2.701 4.293 5.523 3.564 6.336-.008.008-.021.021-.029.029-.006.006-.021.02-.027.027-.814.715-3.635-.863-6.336-3.564-2.73-2.729-4.313-5.586-3.536-6.363.785-.786 3.634.804 6.364 3.535z" fill="#e6e9ed"/></g><g><path d="m33.997 17.504c0-1.111 3.141-2 7-2 3.869 0 7.01.889 7.01 2 .001 1.098-3.139 2-7.01 1.998-3.859.002-7-.898-7-1.998z" fill="#e6e9ed"/></g><g><path d="m22.999 15.504c3.82 0 6.941.869 7 1.959 0 .012 0 .031.001.041-.001.01-.001.029-.001.039-.07 1.082-3.18 1.961-7 1.959-3.859.002-7-.898-7-1.998 0-1.111 3.141-2 7-2z" fill="#e6e9ed"/></g><g><path d="m33.412 16.094c-.785-.785.808-3.635 3.536-6.363 2.736-2.736 5.585-4.328 6.371-3.543.777.777-.807 3.635-3.544 6.371-2.727 2.728-5.585 4.314-6.363 3.535z" fill="#e6e9ed"/></g><g><path d="m24.222 22.457c2.701-2.701 5.522-4.295 6.335-3.564.009.008.022.021.03.029.006.006.02.02.026.027.716.814-.862 3.635-3.563 6.336-2.729 2.729-5.586 4.314-6.364 3.535-.786-.785.807-3.634 3.536-6.363z" fill="#e6e9ed"/></g><g><g><path d="m8.005 52.51v9.99h-3v-12.99z" fill="#8cc152"/></g><g><path d="m29.005 62.5v-12.99l3 3v9.99z" fill="#8cc152"/></g><g><path d="m20.005 52.51v9.99h-3v-12.99z" fill="#8cc152"/></g><g><path d="m44.005 52.51v9.99h-3v-12.99z" fill="#8cc152"/></g><g><path d="m56.005 52.51v9.99h-3v-12.99z" fill="#8cc152"/></g><g><path d="m26.005 52.51v9.99h-3v-12.99z" fill="#8cc152"/></g><g><path d="m61.995 52.51v9.99h-2.99v-12.99z" fill="#8cc152"/></g><g><path d="m50.005 48.6v3.91 9.99h-3v-12.99-4.01l3 3z" fill="#8cc152"/></g><g><path d="m35.005 62.5v-12.99-2.01l3 3v2.01 9.99z" fill="#8cc152"/></g><g><path d="m14.005 52.51v9.99h-3v-12.99z" fill="#8cc152"/></g></g><g><path d="m35.005 17.5c0 .83-.34 1.58-.88 2.119-.54.541-1.29.881-2.12.881-.82 0-1.58-.34-2.12-.881-.54-.539-.88-1.289-.88-2.119s.34-1.58.88-2.121c.53-.529 1.271-.869 2.08-.879.01.01.03.01.04.01s.03 0 .04-.01c.81.01 1.55.35 2.08.879.54.541.88 1.291.88 2.121z" fill="#ffce54"/></g><g><g><path d="m29.005 49.51v12.99h-3v-9.99z" fill="#a0d468"/></g><g><path d="m47.005 49.51v12.99h-3v-9.99z" fill="#a0d468"/></g><g><path d="m23.005 49.51v12.99h-3v-9.99z" fill="#a0d468"/></g><g><path d="m41.005 49.51v12.99h-3v-9.99z" fill="#a0d468"/></g><g><path d="m11.005 49.51v12.99h-3v-9.99z" fill="#a0d468"/></g><g><path d="m35.005 49.51v12.99h-3v-9.99z" fill="#a0d468"/></g><g><path d="m59.005 46.629v2.881 12.99h-3v-9.99-3.01l2.94-2.93z" fill="#a0d468"/></g><g><path d="m17.005 45.51v4 12.99h-3v-9.99-4.01z" fill="#a0d468"/></g><g><path d="m53.005 49.51v12.99h-3v-9.99z" fill="#a0d468"/></g><g><path d="m5.005 46.5v3.01 12.99h-3v-13z" fill="#a0d468"/></g></g></g></svg>