<svg height="512" viewBox="0 0 128 128" width="512" xmlns="http://www.w3.org/2000/svg"><g><path d="m111.229 43.458c-19.429 28.417-18.474 78.042-18.474 78.042h13.917c-1.75-31.431 4.557-78.042 4.557-78.042z" fill="#9adb07"/><path d="m89.172 25.75c-17.417 40.75-16.584 95.75-16.584 95.75h13.917c-1.75-39 2.667-95.75 2.667-95.75z" fill="#9adb07"/><g fill="#8ec100"><path d="m58.5 121.5c0-38 4.834-86.5 20.167-115-6.667 54.2-3.5 115-3.5 115z"/><path d="m99.338 37c-17.416 35.962-16.583 84.5-16.583 84.5h13.917c-1.75-34.418 2.666-84.5 2.666-84.5z"/><path d="m16.771 43.458c19.429 28.417 18.474 78.042 18.474 78.042h-13.917c1.75-31.431-4.557-78.042-4.557-78.042z"/><path d="m38.828 25.75c17.417 40.75 16.584 95.75 16.584 95.75h-13.912c1.745-39-2.672-95.75-2.672-95.75z"/></g><path d="m49.82 16.5c19.1 44.687 18.186 105 18.186 105h-15.261c1.919-42.768-2.925-105-2.925-105z" fill="#9adb07"/><path d="m28.662 37c17.416 35.962 16.583 84.5 16.583 84.5h-13.917c1.75-34.418-2.666-84.5-2.666-84.5z" fill="#9adb07"/><path d="m121.5 123.25h-115a1.75 1.75 0 0 1 0-3.5h115a1.75 1.75 0 0 1 0 3.5z" fill="#8ec100"/></g></svg>