<svg height="481pt" viewBox="0 -33 481.99894 481" width="481pt" xmlns="http://www.w3.org/2000/svg"><path d="m317.476562 415.183594s-14.007812-223.335938 156.992188-323.75c5.1875-3.042969 9.8125 5.738281 6.304688 11.980468-29.679688 52.746094-93.183594 188.308594-44.53125 312.085938zm0 0" fill="#eacf32"/><path d="m245.496094 414.996094s-13.964844-285.6875 158.828125-412.847656c4.957031-3.652344 10.097656 4.363281 7.066406 11.046874-28.46875 62.78125-97.074219 240.40625-47.128906 402.113282zm0 0" fill="#ccc033"/><path d="m216.398438 414.917969s14.964843-223.257813-155.601563-324.574219c-5.171875-3.074219-9.835937 5.683594-6.351563 11.945312 29.449219 52.902344 92.375 188.796876 43.1875 312.316407zm0 0" fill="#eacf32"/><path d="m288.375 415.109375s15.195312-285.609375-157.046875-413.683594c-4.945313-3.675781-10.121094 4.3125-7.117187 11.011719 28.199218 62.929688 96.039062 240.914062 45.398437 402.359375zm0 0" fill="#99af17"/><path d="m233.453125 182.492188c-2.441406 0-4.738281-1.503907-5.628906-3.929688-6.164063-16.71875-13.121094-32.726562-20.679688-47.578125-14.710937-28.90625-32.261719-54.488281-52.15625-76.039063-2.25-2.433593-2.097656-6.226562.335938-8.476562 2.433593-2.25 6.230469-2.09375 8.476562.339844 20.644531 22.355468 38.824219 48.84375 54.039063 78.730468 7.769531 15.269532 14.917968 31.710938 21.242187 48.875 1.148438 3.109376-.445312 6.558594-3.554687 7.707032-.6875.25-1.386719.371094-2.074219.371094zm0 0" fill="#ccc033"/><path d="m296.496094 414.996094s-10.011719-204.945313 91.914062-344.929688c8.480469-23.601562 16.703125-43.03125 22.980469-56.871094 3.03125-6.683593-2.105469-14.699218-7.066406-11.046874-172.792969 127.160156-158.828125 412.847656-158.828125 412.847656l118.765625.3125c-.015625-.042969-.027344-.089844-.039063-.132813zm0 0" fill="#99af17"/><path d="m215.804688 414.910156s-11.558594-120.960937 127.917968-175.21875c4.230469-1.644531 8.011719 3.113282 5.148438 6.492188-24.183594 28.542968-75.925782 101.914062-36.152344 168.980468zm0 0" fill="#eacf32"/><path d="m285.164062 403.09375c-2.574218 0-4.957031-1.671875-5.738281-4.265625-11.1875-36.972656-5.023437-77.515625 18.316407-120.507813 1.582031-2.910156 5.222656-3.988281 8.132812-2.410156 2.914062 1.582032 3.992188 5.226563 2.410156 8.136719-21.753906 40.066406-27.601562 77.515625-17.375 111.304687.957032 3.171876-.835937 6.523438-4.003906 7.480469-.582031.175781-1.167969.261719-1.742188.261719zm0 0" fill="#fcda4f"/><path d="m192.0625 414.847656s12.230469-154.664062-128.398438-224.148437c-4.039062-1.992188-8.253906 2.328125-5.800781 5.957031 23.050781 34.101562 78.511719 130.539062 37.285157 217.933594zm0 0" fill="#ccc033"/><path d="m131.148438 414.589844c34.335937-72.785156 1.605468-151.839844-23.613282-195.9375-12.660156-10.246094-27.175781-19.707032-43.871094-27.957032-4.039062-1.992187-8.25 2.328126-5.800781 5.960938 23.050781 34.101562 78.511719 130.539062 37.285157 217.933594l96.914062.253906s.003906-.039062.007812-.09375zm0 0" fill="#99af17"/><path d="m133.328125 414.691406s12.078125-120.898437-127.164063-175.890625c-4.222656-1.667969-8.023437 3.074219-5.175781 6.464844 24.058594 28.671875 75.488281 102.3125 35.425781 169.167969zm0 0" fill="#ccc033"/><path d="m72.414062 414.433594c34.289063-57.21875 1.558594-119.410156-23.671874-154.121094-12.335938-7.859375-26.425782-15.136719-42.578126-21.511719-4.222656-1.667969-8.023437 3.070313-5.175781 6.460938 24.058594 28.671875 75.488281 102.316406 35.425781 169.171875l96.914063.253906s.003906-.03125.007813-.09375zm0 0" fill="#99af17"/><path d="m166.070312 414.753906s-11.566406-154.726562 129.359376-223.464844c4.046874-1.976562 8.242187 2.371094 5.773437 5.984376-23.195313 33.980468-79.070313 130.125-38.21875 217.738281zm0 0" fill="#fcda4f"/><path d="m202.070312 414.753906s-8.972656-120.335937 85.574219-195.90625c5.019531-8.667968 9.734375-15.96875 13.558594-21.574218 2.46875-3.613282-1.726563-7.960938-5.773437-5.984376-140.921876 68.738282-129.359376 223.464844-129.359376 223.464844l96.914063.257813c-.011719-.03125-.027344-.066407-.042969-.09375zm0 0" fill="#eacf32"/><path d="m126.691406 414.671875 29.550782-216.945313c.640624-4.714843 7.78125-4.917968 8.730468-.25l44.195313 217.414063zm0 0" fill="#fcda4f"/><path d="m377.476562 415.183594s-8.835937-141 73.308594-249.300782c10.5-26.019531 21.597656-47.554687 29.988282-62.46875 3.507812-6.242187-1.117188-15.023437-6.304688-11.980468-171 100.414062-156.992188 323.75-156.992188 323.75l118.765626.316406c-.019532-.054688-.042969-.105469-.0625-.160156zm0 0" fill="#ccc033"/><path d="m181.269531 384.332031c0 12.082031-9.796875 21.875-21.875 21.875-12.082031 0-21.878906-9.792969-21.878906-21.875s9.796875-21.875 21.878906-21.875c12.078125 0 21.875 9.792969 21.875 21.875zm0 0" fill="#eacf32"/><path d="m146.480469 187.226562c0 12.082032-9.796875 21.875-21.878907 21.875-12.082031 0-21.875-9.792968-21.875-21.875 0-12.082031 9.792969-21.878906 21.875-21.878906 12.082032 0 21.878907 9.796875 21.878907 21.878906zm0 0" fill="#ccc033"/></svg>