<svg id="icons" height="512" viewBox="0 0 64 64" width="512" xmlns="http://www.w3.org/2000/svg"><g><g fill="#656d78"><path d="m42 36 5 2-1 2-4-1z"/><path d="m18 25h5.86a9.875 9.875 0 0 0 -1.34 3l-4.77-1z"/><path d="m25 17v2l1.33 2-4.33-2 .22-2z"/></g><path d="m29 22 3 4v24a11.03621 11.03621 0 0 1 -10-11v-7a15.30182 15.30182 0 0 1 .52-4 9.875 9.875 0 0 1 1.34-3 3.96129 3.96129 0 0 1 3.14-2v-1z" fill="#a0d468"/><path d="m35 22-3 4-3-4z" fill="#3679ce"/><path d="m35.4 11 .6 3h-8l.6-3 .4-2 1-2h4l1 2z" fill="#4a89dc"/><path d="m36 14a2.996 2.996 0 0 1 3 3v2l-1.33 2-.67 1h-10l-.66-1h-.01l-1.33-2v-2a3.00237 3.00237 0 0 1 3-3z" fill="#5d9cec"/><path d="m37.67 21 1.33-2v-2h2.78l.22 2z" fill="#656d78"/><path d="m46 25 .25 2-4.77 1a9.92434 9.92434 0 0 0 -1.34-2.99l.01-.01z" fill="#656d78"/><path d="m37 22v1a3.92172 3.92172 0 0 1 3.14 2.01 9.92434 9.92434 0 0 1 1.34 2.99 15.30182 15.30182 0 0 1 .52 4v7a11.03621 11.03621 0 0 1 -10 11v-24l3-4z" fill="#8cc152"/><path d="m22 36v3l-4 1-1-2z" fill="#656d78"/></g><g><path d="m35.999 15a.99958.99958 0 0 1 -.97949-.80371l-1-5a.99993.99993 0 1 1 1.96094-.39258l1 5a1 1 0 0 1 -.78418 1.17676.97907.97907 0 0 1 -.19727.01953z"/><path d="m34.999 10a1 1 0 0 1 -.831-1.55469l2-3a1 1 0 1 1 1.664 1.10938l-2 3a.99845.99845 0 0 1 -.833.44531z"/><path d="m37 7a.99676.99676 0 0 1 -.707-.293l-3-3a.99989.99989 0 0 1 1.414-1.414l3 3a1 1 0 0 1 -.707 1.707z"/><path d="m35.001 10a1.00011 1.00011 0 0 1 -.89551-.55273l-1-2a1.00012 1.00012 0 1 1 1.78906-.89454l1 2a.99991.99991 0 0 1 -.89355 1.44727z"/><path d="m34 8h-4a1 1 0 0 1 0-2h4a1 1 0 0 1 0 2z"/><path d="m34 8a.99943.99943 0 0 1 -1-1v-1a1 1 0 0 1 2 0v1a.99943.99943 0 0 1 -1 1z"/><path d="m36 12h-.59961a1 1 0 0 1 0-2h.59961a1 1 0 0 1 0 2z"/><path d="m28.001 15a.97225.97225 0 0 1 -.19727-.01953 1 1 0 0 1 -.78418-1.17676l1-5a.99993.99993 0 0 1 1.96094.39258l-1 5a.99958.99958 0 0 1 -.97949.80371z"/><path d="m29.001 10a.99845.99845 0 0 1 -.833-.44531l-2-3a1 1 0 1 1 1.664-1.10938l2 3a1 1 0 0 1 -.831 1.55469z"/><path d="m27 7a1 1 0 0 1 -.707-1.707l3-3a.99989.99989 0 1 1 1.414 1.414l-3 3a.99676.99676 0 0 1 -.707.293z"/><path d="m28.999 10a.99991.99991 0 0 1 -.89355-1.44727l1-2a1.00012 1.00012 0 0 1 1.78906.89454l-1 2a1.00011 1.00011 0 0 1 -.89551.55273z"/><path d="m30 8a.99943.99943 0 0 1 -1-1v-1a1 1 0 0 1 2 0v1a.99943.99943 0 0 1 -1 1z"/><path d="m28.59961 12h-.59961a1 1 0 0 1 0-2h.59961a1 1 0 0 1 0 2z"/><path d="m36 15h-8a1 1 0 0 1 0-2h8a1 1 0 0 1 0 2z"/><path d="m39 18a.99943.99943 0 0 1 -1-1 2.0026 2.0026 0 0 0 -2-2 1 1 0 0 1 0-2 4.004 4.004 0 0 1 4 4 .99943.99943 0 0 1 -1 1z"/><path d="m39 20a.99943.99943 0 0 1 -1-1v-2a1 1 0 0 1 2 0v2a.99943.99943 0 0 1 -1 1z"/><path d="m36.999 23a1 1 0 0 1 -.83105-1.55469l2-3a1 1 0 0 1 1.66405 1.10938l-2 3a.99845.99845 0 0 1 -.833.44531z"/><path d="m37.668 22a1.00005 1.00005 0 0 1 -.41992-1.9082l4.333-2a1.00017 1.00017 0 0 1 .8379 1.8164l-4.333 2a.99773.99773 0 0 1 -.41798.0918z"/><path d="m42 18h-3a1 1 0 0 1 0-2h3a1 1 0 0 1 0 2z"/><path d="m41.999 20a1.00014 1.00014 0 0 1 -.99316-.88965l-1-9a1.00025 1.00025 0 1 1 1.98828-.2207l1 9a1.00113 1.00113 0 0 1 -.88379 1.10449 1.07573 1.07573 0 0 1 -.11133.00586z"/><path d="m40.999 11a.98811.98811 0 0 1 -.48437-.126.99889.99889 0 0 1 -.38863-1.35935l5-9a.99974.99974 0 0 1 1.748.9707l-5 9a.99911.99911 0 0 1 -.875.51465z"/><path d="m38 10h-3a1 1 0 0 1 0-2h3a1 1 0 0 1 0 2z"/><path d="m47.001 23a.99925.99925 0 0 1 -.82325-.43066l-9-13a1.00014 1.00014 0 1 1 1.64454-1.13868l9 13a1 1 0 0 1 -.82129 1.56934z"/><path d="m37 24a.99943.99943 0 0 1 -1-1v-1a1 1 0 0 1 2 0v1a.99943.99943 0 0 1 -1 1z"/><path d="m42 33a.99943.99943 0 0 1 -1-1c0-4.71484-2.1084-8-4-8a1 1 0 0 1 0-2c3.36426 0 6 4.39258 6 10a.99943.99943 0 0 1 -1 1z"/><path d="m42 40a.99943.99943 0 0 1 -1-1v-7a1 1 0 0 1 2 0v7a.99943.99943 0 0 1 -1 1z"/><path d="m31.999 51a1.00006 1.00006 0 0 1 -.08886-1.99609 10.08913 10.08913 0 0 0 9.08986-10.00391 1 1 0 0 1 2 0 12.10419 12.10419 0 0 1 -10.91016 11.99609c-.03027.00291-.06054.00391-.09084.00391z"/><path d="m46 26h-5.85547a1 1 0 0 1 0-2h5.85547a1 1 0 0 1 0 2z"/><path d="m41.48047 29a.9999.9999 0 0 1 -.2041-1.97852l4.76758-1a.99978.99978 0 0 1 .41015 1.957l-4.76758 1a.992.992 0 0 1 -.20605.02152z"/><path d="m46.999 34a1.00045 1.00045 0 0 1 -.99121-.876l-1-8a.99991.99991 0 0 1 1.98438-.248l1 8a1.00008 1.00008 0 0 1 -.86817 1.11621 1.08788 1.08788 0 0 1 -.125.00779z"/><path d="m52.001 44a1.00011 1.00011 0 0 1 -.89551-.55273l-5-10a1.00012 1.00012 0 1 1 1.78906-.89454l5 10a.99991.99991 0 0 1 -.89355 1.44727z"/><path d="m47 39a.9902.9902 0 0 1 -.37109-.07129l-5-2a1.00011 1.00011 0 1 1 .74218-1.85742l5 2a1 1 0 0 1 -.37109 1.92871z"/><path d="m46.001 41a.99349.99349 0 0 1 -.24317-.03027l-4-1a.99952.99952 0 0 1 .48438-1.93946l4 1a.9998.9998 0 0 1 -.24121 1.96973z"/><path d="m40.999 51a.99991.99991 0 0 1 -.89355-1.44727l6-12a1.00012 1.00012 0 1 1 1.78906.89454l-6 12a1.00011 1.00011 0 0 1 -.89551.55273z"/><path d="m42.999 64a1.00016 1.00016 0 0 1 -.9873-.84766l-2-13a1 1 0 1 1 1.97656-.30468l2 13a.99987.99987 0 0 1 -.83594 1.14062 1.033 1.033 0 0 1 -.15332.01172z"/><path d="m25 18a.99943.99943 0 0 1 -1-1 4.004 4.004 0 0 1 4-4 1 1 0 0 1 0 2 2.0026 2.0026 0 0 0 -2 2 .99943.99943 0 0 1 -1 1z"/><path d="m25 20a.99943.99943 0 0 1 -1-1v-2a1 1 0 0 1 2 0v2a.99943.99943 0 0 1 -1 1z"/><path d="m27.001 23a.99845.99845 0 0 1 -.833-.44531l-2-3a1 1 0 0 1 1.664-1.10938l2 3a1 1 0 0 1 -.831 1.55469z"/><path d="m26.332 22a.99773.99773 0 0 1 -.418-.0918l-4.333-2a1.00017 1.00017 0 1 1 .8379-1.8164l4.333 2a1.00005 1.00005 0 0 1 -.4199 1.9082z"/><path d="m25 18h-3a1 1 0 0 1 0-2h3a1 1 0 0 1 0 2z"/><path d="m22.001 20a1.06176 1.06176 0 0 1 -.11133-.00586 1.00113 1.00113 0 0 1 -.88379-1.10449l1-9a1.00025 1.00025 0 0 1 1.98828.2207l-1 9a1.00014 1.00014 0 0 1 -.99316.88965z"/><path d="m23.001 11a.99911.99911 0 0 1 -.875-.51465l-5-9a.99974.99974 0 0 1 1.748-.9707l5 9a.99889.99889 0 0 1 -.38867 1.35937.98811.98811 0 0 1 -.48433.12598z"/><path d="m29 10h-3a1 1 0 0 1 0-2h3a1 1 0 0 1 0 2z"/><path d="m16.999 23a1 1 0 0 1 -.82129-1.56934l9-13a1.00014 1.00014 0 0 1 1.64454 1.13868l-9 13a.99925.99925 0 0 1 -.82325.43066z"/><path d="m27 24a.99943.99943 0 0 1 -1-1v-1a1 1 0 0 1 2 0v1a.99943.99943 0 0 1 -1 1z"/><path d="m22 33a.99943.99943 0 0 1 -1-1c0-5.60742 2.63574-10 6-10a1 1 0 0 1 0 2c-1.8916 0-4 3.28516-4 8a.99943.99943 0 0 1 -1 1z"/><path d="m22 40a.99943.99943 0 0 1 -1-1v-7a1 1 0 0 1 2 0v7a.99943.99943 0 0 1 -1 1z"/><path d="m32.001 51c-.03028 0-.06055-.001-.09082-.00391a12.10419 12.10419 0 0 1 -10.91018-11.99609 1 1 0 0 1 2 0 10.08913 10.08913 0 0 0 9.08984 10.00391 1.00006 1.00006 0 0 1 -.08884 1.99609z"/><path d="m23.85547 26h-5.85547a1 1 0 0 1 0-2h5.85547a1 1 0 0 1 0 2z"/><path d="m22.51953 29a.992.992 0 0 1 -.20605-.02148l-4.76856-1a.99978.99978 0 1 1 .41016-1.957l4.76855 1a.9999.9999 0 0 1 -.2041 1.97848z"/><path d="m17.001 34a1.08788 1.08788 0 0 1 -.125-.00781 1.00009 1.00009 0 0 1 -.86817-1.11621l1-8a.99991.99991 0 0 1 1.98438.248l-1 8a1.00045 1.00045 0 0 1 -.99121.87602z"/><path d="m11.999 44a.99991.99991 0 0 1 -.89355-1.44727l5-10a1.00012 1.00012 0 1 1 1.78906.89454l-5 10a1.00011 1.00011 0 0 1 -.89551.55273z"/><path d="m17 39a1 1 0 0 1 -.37109-1.92871l5-2a1.00011 1.00011 0 0 1 .74218 1.85742l-5 2a.9902.9902 0 0 1 -.37109.07129z"/><path d="m17.999 41a.9998.9998 0 0 1 -.24121-1.96973l4-1a.99952.99952 0 1 1 .48438 1.93946l-4 1a.99349.99349 0 0 1 -.24317.03027z"/><path d="m23.001 51a1.00011 1.00011 0 0 1 -.89551-.55273l-6-12a1.00012 1.00012 0 0 1 1.78906-.89454l6 12a.99991.99991 0 0 1 -.89355 1.44727z"/><path d="m21.001 64a1.02318 1.02318 0 0 1 -.15332-.01172.99987.99987 0 0 1 -.83594-1.14062l2-13a1 1 0 1 1 1.97656.30468l-2 13a1.00016 1.00016 0 0 1 -.9873.84766z"/><path d="m37 23h-10a1 1 0 0 1 0-2h10a1 1 0 0 1 0 2z"/><path d="m32.001 27a.99556.99556 0 0 1 -.80078-.40039l-3-4a.99961.99961 0 0 1 1.5996-1.19922l3 4a1.0001 1.0001 0 0 1 -.79882 1.59961z"/><path d="m31.999 27a1.0001 1.0001 0 0 1 -.79882-1.59961l3-4a.99961.99961 0 0 1 1.5996 1.19922l-3 4a.99556.99556 0 0 1 -.80078.40039z"/><path d="m32 51a.99943.99943 0 0 1 -1-1v-24a1 1 0 0 1 2 0v24a.99943.99943 0 0 1 -1 1z"/></g></svg>