<svg id="Capa_1" enable-background="new 0 0 512.002 512.002" height="512" viewBox="0 0 512.002 512.002" width="512" xmlns="http://www.w3.org/2000/svg"><g><g><path d="m376 322.001c16.57 0 30-13.43 30-30s-13.43-30-30-30h-30c16.57 0 30-13.43 30-30s-13.43-30-30-30h-30c0-33.14-26.86-60-60-60s-60 26.86-60 60h-30c-16.57 0-30 13.43-30 30s13.43 30 30 30h-30c-16.57 0-30 13.43-30 30s13.43 30 30 30c-16.57 0-30 13.43-30 30s13.43 30 30 30h30c-16.57 0-30 13.43-30 30s13.43 30 30 30h30c-16.57 0-30 13.43-30 30s13.43 30 30 30h120c16.57 0 30-13.43 30-30s-13.43-30-30-30h30c16.57 0 30-13.43 30-30s-13.43-30-30-30h30c16.57 0 30-13.43 30-30s-13.43-30-30-30z" fill="#ffda8f"/><path d="m325.28 33.091 116.72 36.91c-38.72 19.36-89.08 24.23-131.08 13.73l-54.92-13.73c-7.134 0-239.245 0-246 0v-60h172.98c48.36 0 96.41 7.8 142.3 23.09z" fill="#bb6b58"/><path d="m316 322.001v60h-120v-60c0-33.14 26.86-60 60-60s60 26.86 60 60z" fill="#918787"/></g><g><circle cx="103" cy="10.001" r="10"/><path d="m10 80.001h61.857l57.071 57.071c3.906 3.905 10.236 3.905 14.143 0 3.905-3.905 3.905-10.237 0-14.143l-42.929-42.929h145.858v52.726c-30.608 4.399-54.875 28.666-59.274 59.274h-20.726c-22.056 0-40 17.944-40 40 0 7.389 2.022 14.311 5.529 20.256-19.958 2.232-35.529 19.201-35.529 39.745 0 11.934 5.254 22.665 13.569 30-8.315 7.335-13.569 18.066-13.569 30 0 20.544 15.571 37.513 35.529 39.744-3.507 5.946-5.529 12.868-5.529 20.256 0 20.544 15.571 37.513 35.529 39.744-3.507 5.946-5.529 12.868-5.529 20.256 0 22.056 17.944 40 40 40h120c22.056 0 40-17.944 40-40 0-7.389-2.022-14.311-5.529-20.256 19.958-2.231 35.529-19.2 35.529-39.744 0-7.389-2.022-14.311-5.529-20.256 19.958-2.231 35.529-19.2 35.529-39.744 0-11.934-5.254-22.665-13.569-30 8.315-7.335 13.569-18.066 13.569-30 0-20.544-15.571-37.513-35.529-39.744 3.507-5.946 5.529-12.868 5.529-20.256 0-22.056-17.944-40-40-40h-20.726c-4.399-30.609-28.666-54.875-59.274-59.274v-49.918l42.494 10.624c17.655 4.414 37.299 6.438 58.239 5.444l68.196 68.196c.545.545 1.662 1.404 2.6 1.873l60 30c4.96 2.48 10.956.447 13.416-4.472 2.47-4.94.468-10.947-4.473-13.417l-42.111-21.056 42.111-21.055c4.94-2.47 6.942-8.477 4.473-13.417-2.471-4.94-8.481-6.942-13.416-4.472l-53.553 26.777-51.678-51.678c45.52-7.612 64.92-24.389 114.175-47.21 4.94-2.47 6.942-8.477 4.473-13.417-2.471-4.94-8.481-6.942-13.416-4.472l-56.376 28.188-112.787-35.666c-46.981-15.644-95.898-23.578-145.387-23.578h-34.979c-5.522 0-10 4.477-10 10s4.478 10 10 10h34.979c47.362 0 94.176 7.596 139.139 22.577.049.016 90.089 28.49 90.089 28.49-31.448 9.545-67.346 10.841-98.862 2.961l-54.92-13.73c-.733-.183-1.649-.298-2.426-.298-4.518 0-230.553 0-236 0v-40h38c5.522 0 10-4.477 10-10s-4.478-10-10-10h-48c-5.522 0-10 4.477-10 10v60c0 5.523 4.478 10 10 10zm126 191.99h71.077c-10.739 10.509-18.114 24.443-20.351 40.01h-50.726c-11.028 0-20-8.972-20-20s8.972-20.01 20-20.01zm170 50.01v50h-100v-50c0-27.57 22.43-50 50-50s50 22.43 50 50zm-190 30c0-11.028 8.972-20 20-20h50v40c-21.449 0-26.562 0-50 0-11.028 0-20-8.972-20-20zm200 140h-120c-11.028 0-20-8.972-20-20s8.972-20 20-20h120c11.028 0 20 8.972 20 20s-8.972 20-20 20zm30-60h-180c-11.028 0-20-8.972-20-20s8.972-20 20-20h180c11.028 0 20 8.972 20 20s-8.972 20-20 20zm30-60c-23.289 0-28.4 0-50 0v-40h50c11.028 0 20 8.972 20 20s-8.972 20-20 20zm20-80c0 11.028-8.972 20-20 20h-50.726c-2.237-15.567-9.613-29.491-20.351-40h71.077c11.028 0 20 8.972 20 20zm-30-60c0 11.028-8.972 20-20 20h-180c-11.028 0-20-8.972-20-20s8.972-20 20-20h180c11.028 0 20 8.972 20 20zm-61.006-40h-97.988c4.646-22.795 24.847-40 48.994-40s44.348 17.205 48.994 40z"/></g></g></svg>