<?xml version="1.0" encoding="iso-8859-1"?>
<!-- Generator: Adobe Illustrator 19.0.0, SVG Export Plug-In . SVG Version: 6.00 Build 0)  -->
<svg version="1.1" id="Capa_1" xmlns="http://www.w3.org/2000/svg" xmlns:xlink="http://www.w3.org/1999/xlink" x="0px" y="0px"
	 viewBox="0 0 511.999 511.999" style="enable-background:new 0 0 511.999 511.999;" xml:space="preserve">
<ellipse style="fill:#808080;" cx="256" cy="134.351" rx="78.42" ry="71.59"/>
<path style="fill:#666666;" d="M281.664,202.001c30.704-9.706,52.76-36.319,52.76-67.65c0-39.539-35.112-71.593-78.424-71.593
	v139.243H281.664z"/>
<ellipse style="fill:#4D4D4D;" cx="256" cy="182.681" rx="107.14" ry="75.12"/>
<path style="fill:#FC5759;" d="M162.997,178.908c-13.718,3.354-25.261,12.111-31.625,24.06
	c-13.922,26.138-21.964,56.977-21.964,90.008c0,94.38,65.632,170.891,146.592,170.891s146.592-76.51,146.592-170.891
	c0-33.031-8.042-63.869-21.964-90.008c-6.364-11.949-17.907-20.706-31.625-24.06l-49.215-12.033
	c-28.718-7.021-58.859-7.021-87.577,0L162.997,178.908z"/>
<path style="fill:#EF4246;" d="M380.629,202.968c-6.364-11.949-17.907-20.706-31.625-24.06l-49.215-12.032
	c-14.359-3.511-29.074-5.266-43.789-5.266v302.257c80.961,0,146.592-76.51,146.592-170.891
	C402.592,259.945,394.551,229.106,380.629,202.968z"/>
<path style="fill:#DD3C44;" d="M380.629,202.968c-6.364-11.949-17.907-20.706-31.625-24.06l-49.215-12.032
	c-14.359-3.511-29.074-5.266-43.789-5.266v7.099l41.716,10.199c13.718,3.354,25.261,12.111,31.625,24.06
	c13.922,26.138,21.964,56.977,21.964,90.008c0,73.345-39.64,143.015-95.305,170.431v0.459c80.961,0,146.592-76.51,146.592-170.891
	C402.592,259.945,394.551,229.106,380.629,202.968z"/>
<g>
	<path style="fill:#666666;" d="M162.997,178.908c-5.053,1.235-9.806,3.209-14.119,5.8c0.426,18.483,15.531,33.338,34.116,33.338
		c18.853,0,34.136-15.283,34.136-34.136c0-6.236-1.68-12.076-4.6-17.107c-0.106,0.026-0.212,0.047-0.318,0.073L162.997,178.908z"/>
	<path style="fill:#666666;" d="M381.264,381.786c-8.295-10.489-21.124-17.227-35.534-17.227c-25.014,0-45.291,20.278-45.291,45.291
		c0,15.331,7.625,28.873,19.281,37.067C345.22,432.548,366.607,409.821,381.264,381.786z"/>
</g>
<path style="fill:#4D4D4D;" d="M345.729,364.56c-2.488,0-4.926,0.209-7.305,0.595c-8.308,22.709-20.315,43.446-35.076,60.669
	c3.236,8.572,8.991,15.907,16.371,21.095c1.445-0.814,2.872-1.663,4.29-2.531c0.277-0.169,0.553-0.338,0.828-0.509
	c2.842-1.766,5.628-3.638,8.355-5.611c0.267-0.193,0.533-0.386,0.799-0.581c2.714-1.992,5.367-4.084,7.957-6.273
	c0.254-0.215,0.507-0.43,0.76-0.646c2.577-2.208,5.09-4.511,7.535-6.906c0.239-0.234,0.478-0.469,0.715-0.705
	c2.432-2.414,4.796-4.918,7.088-7.509c0.223-0.252,0.446-0.506,0.667-0.76c2.279-2.609,4.484-5.304,6.613-8.081
	c0.206-0.269,0.411-0.539,0.616-0.809c2.115-2.794,4.154-5.669,6.111-8.621c0.188-0.284,0.376-0.57,0.563-0.855
	c1.942-2.968,3.804-6.012,5.579-9.129c0.17-0.298,0.338-0.597,0.506-0.896c0.874-1.555,1.733-3.122,2.564-4.711
	C372.969,371.298,360.14,364.56,345.729,364.56z"/>
<circle style="fill:#666666;" cx="309.19" cy="235.581" r="22.21"/>
<path style="fill:#4D4D4D;" d="M389.176,221.521c-12.079,3.132-20.999,14.106-20.999,27.165c0,15.498,12.564,28.063,28.062,28.063
	c1.931,0,3.816-0.195,5.637-0.567C400.256,256.832,395.866,238.434,389.176,221.521z"/>
<g>
	<path style="fill:#666666;" d="M178.574,405.739c0-14.693-11.911-26.604-26.604-26.604c-7.222,0-13.768,2.882-18.562,7.553
		c8.935,15.853,20.069,29.868,32.9,41.455C173.683,423.414,178.574,415.15,178.574,405.739z"/>
	<circle style="fill:#666666;" cx="198.62" cy="314.571" r="24.613"/>
</g>
<path d="M506.451,295.068l-55.15-14.864l-32.55-48.195c-1.54-2.282-4.202-3.537-6.949-3.266l-11.645,1.146
	c-0.198-0.607-0.4-1.213-0.604-1.818c-0.241-0.715-0.484-1.429-0.733-2.14c-0.447-1.274-0.904-2.544-1.376-3.808
	c-0.32-0.858-0.653-1.709-0.985-2.561c-0.104-0.266-0.203-0.534-0.308-0.799c-0.025-0.064-0.057-0.123-0.084-0.186
	c-2.599-6.558-5.527-12.955-8.819-19.135c-1.403-2.634-3.025-5.132-4.836-7.481l27.638-29.669c1.684-1.807,2.369-4.325,1.835-6.735
	l-13.398-60.441l34.412-26.798c3.268-2.545,3.853-7.257,1.309-10.525c-2.546-3.27-7.26-3.853-10.525-1.31l-38.152,29.71
	c-2.284,1.779-3.341,4.714-2.714,7.54l13.571,61.219l-24.685,26.498c-0.361-0.269-0.728-0.531-1.095-0.792
	c-0.647-19.881-10.844-38.469-29.021-53.087c-2.527-27.601-20.196-50.929-45.279-63.149l14.781-22.538
	c3.938-6.005,6.02-12.976,6.02-20.158v-9.961c0-4.142-3.357-7.5-7.5-7.5s-7.5,3.358-7.5,7.5v9.961c0,4.251-1.232,8.377-3.563,11.932
	l-16.57,25.266c-8.197-2.373-16.919-3.666-25.977-3.666c-9.058,0-17.78,1.293-25.976,3.666l-16.57-25.267
	c-2.331-3.554-3.563-7.679-3.563-11.931v-9.961c0-4.142-3.357-7.5-7.5-7.5s-7.5,3.358-7.5,7.5v9.961
	c0,7.183,2.082,14.153,6.02,20.158l14.782,22.539c-25.083,12.22-42.751,35.547-45.279,63.149
	c-18.177,14.619-28.374,33.206-29.021,53.088c-0.368,0.261-0.735,0.522-1.096,0.792l-24.685-26.499l13.571-61.219
	c0.627-2.827-0.43-5.762-2.714-7.54l-38.152-29.71c-3.27-2.544-7.98-1.96-10.525,1.31c-2.545,3.268-1.959,7.98,1.309,10.525
	l34.412,26.798l-13.398,60.441c-0.534,2.41,0.151,4.929,1.835,6.735l27.638,29.669c-1.811,2.349-3.432,4.847-4.835,7.48
	c-5.158,9.684-9.456,19.887-12.9,30.449l-11.654-1.147c-2.745-0.271-5.409,0.984-6.949,3.266l-32.55,48.195l-55.15,14.864
	c-3.999,1.078-6.367,5.194-5.289,9.193c0.901,3.346,3.93,5.55,7.236,5.55c0.646,0,1.303-0.084,1.957-0.26l57.848-15.591
	c1.74-0.469,3.254-1.55,4.263-3.044l31.613-46.807l4.492,0.442c-3.804,15.66-5.762,31.944-5.762,48.424
	c0,31.134,6.932,60.425,19.093,85.928l-20.8,15.988c-1.58,1.214-2.612,3.008-2.868,4.984l-8.043,62.194l-28.528,33.284
	c-2.695,3.145-2.331,7.88,0.813,10.575c1.414,1.212,3.15,1.806,4.877,1.806c2.114,0,4.215-0.889,5.698-2.619l29.985-34.983
	c0.95-1.109,1.557-2.471,1.744-3.919l7.931-61.326l16.256-12.495c9.134,15.735,20.285,29.64,33.217,41.317
	c0.3,0.271,0.619,0.507,0.95,0.721c25.994,23.148,58.514,36.935,93.768,36.935c23.797,0,46.351-6.281,66.492-17.481
	c0.309-0.123,0.613-0.266,0.909-0.433c24.421-13.762,45.112-34.616,60.279-60.591l16.523,12.124l7.918,61.229
	c0.188,1.448,0.794,2.81,1.744,3.919l29.985,34.983c1.483,1.731,3.584,2.62,5.698,2.619c1.727,0,3.463-0.593,4.877-1.806
	c3.145-2.695,3.509-7.43,0.813-10.575L422.71,462.07l-8.043-62.194c-0.264-2.034-1.348-3.872-3.002-5.085l-20.925-15.354
	c12.319-25.628,19.351-55.111,19.351-86.462c0-5.817-0.258-11.607-0.74-17.356c-0.002-0.021-0.001-0.042-0.002-0.063
	c-0.004-0.044-0.009-0.087-0.012-0.131c-0.07-0.822-0.149-1.643-0.228-2.463c-0.104-1.076-0.217-2.15-0.337-3.222
	c-0.093-0.822-0.187-1.644-0.29-2.464c-0.168-1.348-0.351-2.692-0.545-4.034c-0.081-0.558-0.161-1.117-0.247-1.674
	c-0.25-1.626-0.518-3.248-0.806-4.863c-0.075-0.423-0.156-0.844-0.234-1.267c-0.297-1.608-0.61-3.211-0.946-4.807
	c-0.036-0.169-0.067-0.339-0.104-0.508c-0.365-1.712-0.759-3.416-1.167-5.114c-0.036-0.152-0.067-0.305-0.104-0.457l4.492-0.442
	l31.613,46.807c1.009,1.494,2.522,2.575,4.263,3.044l57.848,15.591c0.654,0.176,1.311,0.26,1.957,0.26
	c3.307,0,6.335-2.205,7.236-5.55C512.818,300.262,510.45,296.146,506.451,295.068z M384.889,231.528
	c0.404,1.166,0.786,2.341,1.166,3.517c0.135,0.418,0.277,0.833,0.409,1.252c0.311,0.986,0.604,1.979,0.899,2.972
	c0.208,0.703,0.418,1.406,0.619,2.113c0.253,0.891,0.495,1.786,0.734,2.682c0.218,0.819,0.432,1.639,0.64,2.461
	c0.213,0.843,0.422,1.687,0.623,2.534c0.21,0.884,0.409,1.772,0.606,2.66c0.181,0.817,0.365,1.633,0.535,2.453
	c0.191,0.92,0.366,1.844,0.543,2.768c0.155,0.809,0.319,1.616,0.464,2.428c0.157,0.883,0.294,1.771,0.439,2.658
	c0.302,1.845,0.578,3.697,0.825,5.557c0.066,0.499,0.139,0.997,0.202,1.497c-10.092-1.302-17.915-9.951-17.915-20.393
	C375.677,241.635,379.258,235.255,384.889,231.528z M228.925,75.068c0.394-0.11,0.781-0.251,1.16-0.428
	c8.026-2.829,16.766-4.381,25.914-4.381c9.139,0,17.87,1.549,25.889,4.372c0.395,0.187,0.8,0.334,1.211,0.447
	c19.622,7.29,34.804,22.277,40.897,40.958c-1.713-0.91-3.467-1.77-5.24-2.607c-0.02-0.009-0.04-0.019-0.06-0.028
	c-13.74-6.472-29.223-10.703-45.631-12.436c-0.296-0.031-0.593-0.059-0.89-0.089c-1.396-0.14-2.799-0.261-4.208-0.365
	c-0.462-0.034-0.924-0.068-1.387-0.098c-1.303-0.084-2.612-0.15-3.924-0.203c-0.472-0.019-0.942-0.045-1.415-0.06
	c-1.741-0.055-3.488-0.09-5.243-0.09s-3.502,0.035-5.243,0.09c-0.473,0.015-0.943,0.041-1.415,0.06
	c-1.313,0.053-2.621,0.119-3.924,0.203c-0.463,0.03-0.925,0.064-1.387,0.098c-1.409,0.103-2.811,0.225-4.207,0.365
	c-0.297,0.03-0.594,0.057-0.89,0.089c-16.407,1.733-31.891,5.964-45.631,12.435c-0.02,0.009-0.04,0.018-0.059,0.028
	c-1.773,0.836-3.527,1.696-5.24,2.607C194.098,97.346,209.291,82.354,228.925,75.068z M157.343,188.747
	c0.438-0.196,0.877-0.391,1.321-0.572c0.281-0.114,0.568-0.218,0.852-0.327c0.319-0.122,0.637-0.246,0.959-0.361
	c0.141-0.05,0.284-0.098,0.426-0.147c0.312-0.107,0.627-0.207,0.943-0.308c0.175-0.056,0.348-0.115,0.523-0.169
	c0.16-0.049,0.319-0.099,0.479-0.146c0.638-0.187,1.281-0.365,1.932-0.524l43.508-10.637c0.887,2.684,1.345,5.505,1.345,8.353
	c0,14.687-11.949,26.636-26.637,26.636c-12.836,0-23.747-9.342-26.138-21.582C157.017,188.889,157.181,188.82,157.343,188.747z
	 M166.592,418.032c-8.727-8.624-16.541-18.48-23.247-29.342c2.645-1.343,5.584-2.055,8.625-2.055
	c10.534,0,19.104,8.57,19.104,19.104C171.074,410.316,169.456,414.636,166.592,418.032z M248.5,456.127
	c-26.122-1.639-50.352-11.784-70.717-28.114c5.288-6.108,8.291-13.948,8.291-22.274c0-18.805-15.299-34.104-34.104-34.104
	c-5.635,0-11.074,1.369-15.932,3.944c-12.148-24.252-19.129-52.486-19.129-82.603c0-30.682,7.29-60.587,21.083-86.482
	c1.607-3.017,3.619-5.79,5.954-8.278c5.901,15.891,21.291,27.33,39.049,27.33c22.959,0,41.636-18.678,41.636-41.636
	c0-3.966-0.588-7.894-1.692-11.672c3.082-0.584,6.177-1.082,9.285-1.502c5.401-0.729,10.833-1.208,16.277-1.437L248.5,456.127
	L248.5,456.127z M256,154.109c-0.134,0-0.265,0.013-0.398,0.02c-15.085,0.031-30.166,1.825-44.839,5.385
	c-0.004,0.001-0.008,0.001-0.012,0.002l-0.052,0.013c-0.09,0.022-0.18,0.04-0.27,0.062l-49.215,12.032
	c-0.676,0.166-1.348,0.345-2.017,0.533c-0.205,0.058-0.408,0.122-0.613,0.182c-0.196,0.058-0.392,0.116-0.587,0.175
	c-0.184,0.056-0.37,0.107-0.554,0.165c2.888-13.16,11.389-25.092,23.786-34.642c0.321-0.174,0.633-0.372,0.931-0.595
	c16.498-12.395,39.06-20.178,63.116-21.974c0.146-0.011,0.29-0.024,0.436-0.034c1.453-0.104,2.913-0.178,4.376-0.238
	c0.284-0.011,0.565-0.03,0.85-0.04c1.682-0.059,3.369-0.092,5.061-0.092c1.692,0,3.379,0.033,5.061,0.092
	c0.285,0.01,0.566,0.029,0.85,0.04c1.463,0.06,2.923,0.134,4.376,0.238c0.146,0.01,0.29,0.024,0.436,0.034
	c24.056,1.797,46.618,9.58,63.116,21.974c0.281,0.212,0.58,0.389,0.883,0.557c12.424,9.556,20.942,21.503,23.834,34.681
	c-0.179-0.057-0.361-0.106-0.541-0.161c-0.211-0.064-0.422-0.127-0.634-0.189c-0.843-0.247-1.69-0.482-2.547-0.692
	c-0.017-0.004-0.033-0.009-0.05-0.013l-49.215-12.033c-7.453-1.822-15.013-3.189-22.625-4.1c-7.481-0.895-15.014-1.345-22.547-1.361
	C256.265,154.122,256.134,154.109,256,154.109z M320.323,437.809c-7.826-7.122-12.385-17.267-12.385-27.958
	c0-20.838,16.953-37.791,37.791-37.791c9.98,0,19.363,3.869,26.391,10.752C359.132,405.901,341.295,424.905,320.323,437.809z
	 M379.105,368.959c-9.332-7.65-21.021-11.899-33.376-11.899c-29.109,0-52.791,23.682-52.791,52.791
	c0,13.17,4.961,25.732,13.62,35.339c-13.465,6.193-27.945,9.988-43.058,10.936V169.298c5.444,0.229,10.876,0.709,16.277,1.437
	c6.129,0.827,12.218,1.955,18.23,3.425l49.215,12.033c0.651,0.159,1.293,0.337,1.932,0.524c0.195,0.057,0.389,0.118,0.584,0.178
	c0.459,0.141,0.914,0.291,1.366,0.446c0.202,0.07,0.405,0.137,0.605,0.209c0.585,0.211,1.165,0.432,1.737,0.666
	c0.23,0.095,0.457,0.198,0.686,0.297c0.35,0.15,0.698,0.303,1.042,0.462c0.307,0.142,0.612,0.289,0.916,0.438
	c0.245,0.12,0.489,0.245,0.731,0.37c0.338,0.174,0.677,0.348,1.01,0.531c0.01,0.006,0.021,0.012,0.031,0.018
	c0.465,0.256,0.926,0.52,1.381,0.794c0.023,0.014,0.047,0.022,0.07,0.036c6.226,3.752,11.333,9.017,14.696,15.331
	c1.897,3.561,3.658,7.204,5.307,10.908c-11.282,6.1-18.639,18.001-18.639,31.284c0,19.151,15.218,34.806,34.195,35.528
	c0.132,2.913,0.22,5.832,0.22,8.761C395.092,320.391,389.305,346.246,379.105,368.959z"/>
<path d="M309.194,205.865c-16.386,0-29.716,13.33-29.716,29.715s13.33,29.715,29.716,29.715c16.385,0,29.715-13.33,29.715-29.715
	S325.579,205.865,309.194,205.865z M309.194,250.294c-8.114,0-14.716-6.601-14.716-14.715s6.602-14.715,14.716-14.715
	s14.715,6.601,14.715,14.715S317.308,250.294,309.194,250.294z"/>
<path d="M198.625,282.461c-17.707,0-32.113,14.406-32.113,32.113s14.406,32.113,32.113,32.113s32.113-14.406,32.113-32.113
	S216.332,282.461,198.625,282.461z M198.625,331.688c-9.436,0-17.113-7.677-17.113-17.113s7.677-17.113,17.113-17.113
	s17.113,7.677,17.113,17.113S208.062,331.688,198.625,331.688z"/>
<g>
</g>
<g>
</g>
<g>
</g>
<g>
</g>
<g>
</g>
<g>
</g>
<g>
</g>
<g>
</g>
<g>
</g>
<g>
</g>
<g>
</g>
<g>
</g>
<g>
</g>
<g>
</g>
<g>
</g>
</svg>
