<svg id="icons" height="512" viewBox="0 0 64 64" width="512" xmlns="http://www.w3.org/2000/svg"><g><path d="m36 38-4 4-4-4z" fill="#545c66"/><path d="m28 38 4 4v16h-2.59a11.005 11.005 0 0 1 -6.41-10v-7a2.77192 2.77192 0 0 1 .18-1 2.96776 2.96776 0 0 1 2.82-2z" fill="#ffce54"/><path d="m40 36a1.99309 1.99309 0 0 1 -2 2h-12a1.99944 1.99944 0 0 1 -2-2v-2c0-2 6-4 6-9l.5-21 1.5-3 1.5 3 .5 21c0 5 6 7 6 9z" fill="#656d78"/><path d="m38 38a2.996 2.996 0 0 1 3 3v7a10.9883 10.9883 0 0 1 -6.41 10h-2.59v-16l4-4z" fill="#f6bb42"/></g><g><path d="m38 39a1 1 0 0 1 0-2 1.00067 1.00067 0 0 0 1-1 1 1 0 0 1 2 0 3.00328 3.00328 0 0 1 -3 3z"/><path d="m40 37a.99943.99943 0 0 1 -1-1v-2a1 1 0 0 1 2 0v2a.99943.99943 0 0 1 -1 1z"/><path d="m40 35a.99943.99943 0 0 1 -1-1c0-.31641-1.03711-1.208-1.65625-1.74121-1.83301-1.57715-4.34375-3.73731-4.34375-7.25879a1 1 0 0 1 2 0c0 2.60449 1.93848 4.27148 3.64844 5.74316 1.26172 1.08594 2.35156 2.02344 2.35156 3.25684a.99943.99943 0 0 1 -1 1z"/><path d="m26 39a3.00328 3.00328 0 0 1 -3-3 1 1 0 0 1 2 0 1.00067 1.00067 0 0 0 1 1 1 1 0 0 1 0 2z"/><path d="m24 37a.99943.99943 0 0 1 -1-1v-2a1 1 0 0 1 2 0v2a.99943.99943 0 0 1 -1 1z"/><path d="m24 35a.99943.99943 0 0 1 -1-1c0-1.2334 1.08984-2.1709 2.35156-3.25684 1.70996-1.47168 3.64844-3.13867 3.64844-5.74316a1 1 0 0 1 2 0c0 3.52148-2.51074 5.68164-4.34375 7.25879-.61914.53321-1.65625 1.4248-1.65625 1.74121a.99943.99943 0 0 1 -1 1z"/><path d="m30 26h-.02344a1.00093 1.00093 0 0 1 -.97656-1.02344l.5-21a1.01618 1.01618 0 0 1 1.02344-.97656 1.00093 1.00093 0 0 1 .97656 1.02344l-.5 21a1.001 1.001 0 0 1 -1 .97656z"/><path d="m34 26a1.001 1.001 0 0 1 -1-.97656l-.5-21a1.00027 1.00027 0 1 1 2-.04688l.5 21a1.00093 1.00093 0 0 1 -.97656 1.02344z"/><path d="m30.499 5a.99991.99991 0 0 1 -.89355-1.44727l1.5-3a1.00012 1.00012 0 1 1 1.78906.89454l-1.5 3a1.00011 1.00011 0 0 1 -.89551.55273z"/><path d="m33.501 5a1.00011 1.00011 0 0 1 -.89551-.55273l-1.5-3a1.00012 1.00012 0 0 1 1.78904-.89454l1.5 3a.99991.99991 0 0 1 -.89353 1.44727z"/><path d="m38 39h-12a1 1 0 0 1 0-2h12a1 1 0 0 1 0 2z"/><path d="m32 43a1 1 0 0 1 -.707-1.707l4-4a.99989.99989 0 0 1 1.414 1.414l-4 4a.99676.99676 0 0 1 -.707.293z"/><path d="m32 43a.99676.99676 0 0 1 -.707-.293l-4-4a.99989.99989 0 0 1 1.414-1.414l4 4a1 1 0 0 1 -.707 1.707z"/><path d="m41 42a.99943.99943 0 0 1 -1-1 2.0026 2.0026 0 0 0 -2-2 1 1 0 0 1 0-2 4.004 4.004 0 0 1 4 4 .99943.99943 0 0 1 -1 1z"/><path d="m41 49a.99943.99943 0 0 1 -1-1v-7a1 1 0 0 1 2 0v7a.99943.99943 0 0 1 -1 1z"/><path d="m23 42a.99943.99943 0 0 1 -1-1 4.004 4.004 0 0 1 4-4 1 1 0 0 1 0 2 2.0026 2.0026 0 0 0 -2 2 .99943.99943 0 0 1 -1 1z"/><path d="m23 49a.99943.99943 0 0 1 -1-1v-7a1 1 0 0 1 2 0v7a.99943.99943 0 0 1 -1 1z"/><path d="m29.40723 59.001a.99973.99973 0 0 1 -.416-.09082 12.03714 12.03714 0 0 1 -6.99123-10.91018 1 1 0 0 1 2 0 10.03088 10.03088 0 0 0 5.8252 9.0918 1.00008 1.00008 0 0 1 -.418 1.90918z"/><path d="m34.59277 59.001a1.00008 1.00008 0 0 1 -.418-1.90918 10.03088 10.03088 0 0 0 5.82523-9.09182 1 1 0 0 1 2 0 12.03714 12.03714 0 0 1 -6.99121 10.91016.99973.99973 0 0 1 -.41602.09084z"/><path d="m34.5918 59.001h-5.1836a1 1 0 1 1 0-2h5.1836a1 1 0 1 1 0 2z"/><path d="m32 59a.99943.99943 0 0 1 -1-1v-16a1 1 0 0 1 2 0v16a.99943.99943 0 0 1 -1 1z"/><path d="m39.999 37a1.00006 1.00006 0 0 1 -.86718-1.49609l4-7a.9999.9999 0 1 1 1.73632.99218l-4 7a.99839.99839 0 0 1 -.86914.50391z"/><path d="m45 30a1.00062 1.00062 0 0 1 -.94824-1.31641l2-6a.99964.99964 0 1 1 1.89648.63282l-2 6a.99947.99947 0 0 1 -.94824.68359z"/><path d="m45 30h-1a1 1 0 0 1 0-2h1a1 1 0 0 1 0 2z"/><path d="m24.001 37a.99839.99839 0 0 1 -.86914-.50391l-4-7a.9999.9999 0 0 1 1.73632-.99218l4 7a1.00006 1.00006 0 0 1 -.86718 1.49609z"/><path d="m19 30a.99947.99947 0 0 1 -.94824-.68359l-2-6a.99964.99964 0 0 1 1.89648-.63282l2 6a1.00062 1.00062 0 0 1 -.94824 1.31641z"/><path d="m20 30h-1a1 1 0 0 1 0-2h1a1 1 0 0 1 0 2z"/><path d="m49.001 53a.99906.99906 0 0 1 -.82715-.4375l-8.17188-12a.99949.99949 0 0 1 1.65235-1.125l8.17187 12a.99806.99806 0 0 1 -.26367 1.38867.988.988 0 0 1 -.56152.17383z"/><path d="m43 49h-2a1 1 0 0 1 0-2h2a1 1 0 0 1 0 2z"/><path d="m43 64a.99943.99943 0 0 1 -1-1v-15a1 1 0 0 1 2 0v15a.99943.99943 0 0 1 -1 1z"/><path d="m14.999 53a.988.988 0 0 1 -.56152-.17383.99806.99806 0 0 1 -.26367-1.38867l8.17187-12a.99949.99949 0 0 1 1.65235 1.125l-8.17188 12a.99906.99906 0 0 1 -.82715.4375z"/><path d="m23 49h-2a1 1 0 0 1 0-2h2a1 1 0 0 1 0 2z"/><path d="m21 64a.99943.99943 0 0 1 -1-1v-15a1 1 0 0 1 2 0v15a.99943.99943 0 0 1 -1 1z"/></g></svg>