<?xml version="1.0" encoding="iso-8859-1"?>
<!-- Generator: Adobe Illustrator 19.0.0, SVG Export Plug-In . SVG Version: 6.00 Build 0)  -->
<svg version="1.1" id="Capa_1" xmlns="http://www.w3.org/2000/svg" xmlns:xlink="http://www.w3.org/1999/xlink" x="0px" y="0px"
	 viewBox="0 0 512.001 512.001" style="enable-background:new 0 0 512.001 512.001;" xml:space="preserve">
<g>
	<path style="fill:#EBAF4B;" d="M256,448.388L256,448.388c-8.854,0-16.032-7.178-16.032-16.032v-16.032
		c0-8.854,7.178-16.032,16.032-16.032l0,0c8.854,0,16.032,7.178,16.032,16.032v16.032C272.032,441.21,264.854,448.388,256,448.388z"
		/>
	<path style="fill:#EBAF4B;" d="M360.21,448.388L360.21,448.388c-8.854,0-16.032-7.178-16.032-16.032v-8.016
		c0-8.854,7.178-16.032,16.032-16.032l0,0c8.854,0,16.032,7.178,16.032,16.032v8.016C376.242,441.21,369.064,448.388,360.21,448.388
		z"/>
	<path style="fill:#EBAF4B;" d="M328.145,488.468L328.145,488.468c0,8.854-7.178,16.032-16.032,16.032h-8.016
		c-8.854,0-16.032-7.178-16.032-16.032l0,0c0-8.854,7.178-16.032,16.032-16.032h8.016
		C320.967,472.436,328.145,479.614,328.145,488.468z"/>
</g>
<g>
	<path style="fill:#FFC850;" d="M283.369,481.425L283.369,481.425c-6.261,6.261-16.412,6.261-22.673,0l-5.668-5.668
		c-6.261-6.261-6.261-16.412,0-22.673l0,0c6.261-6.261,16.412-6.261,22.673,0l5.668,5.668
		C289.63,465.013,289.63,475.164,283.369,481.425z"/>
	<path style="fill:#FFC850;" d="M335.189,483.773L335.189,483.773c-6.261-6.261-6.261-16.412,0-22.673l5.668-5.668
		c6.261-6.261,16.412-6.261,22.673,0l0,0c6.261,6.261,6.261,16.412,0,22.673l-5.668,5.668
		C351.601,490.034,341.45,490.034,335.189,483.773z"/>
</g>
<g>
	<path style="fill:#EBAF4B;" d="M377.122,74.09c-10.279,0.767-20.565,1.392-30.869,1.816l5.94,35.804l11.273-2.818
		c11.511-2.878,18.551-14.499,15.77-26.035L377.122,74.09z"/>
	<path style="fill:#EBAF4B;" d="M135.13,73.04l-2.366,9.818c-2.779,11.536,4.259,23.157,15.772,26.035l11.271,2.818l6.654-40.098
		C156.027,72.239,145.582,72.689,135.13,73.04z"/>
</g>
<ellipse style="fill:#DC9646;" cx="256" cy="243.981" rx="48.1" ry="124.25"/>
<path style="fill:#C87C40;" d="M256,191.872c16.088,0,31.41,4.181,45.435,11.633c-6.504-48.723-24.365-83.778-45.435-83.778
	s-38.931,35.055-45.435,83.778C224.59,196.052,239.912,191.872,256,191.872z"/>
<g>
	<circle style="fill:#5D5360;" cx="227.94" cy="147.781" r="12.02"/>
	<circle style="fill:#5D5360;" cx="284.06" cy="147.781" r="12.02"/>
</g>
<path style="fill:#FFC850;" d="M256,400.291L256,400.291c-11.068,0-20.04-8.972-20.04-20.04v-8.016
	c0-11.068,8.972-20.04,20.04-20.04l0,0c11.068,0,20.04,8.972,20.04,20.04v8.016C276.04,391.319,267.068,400.291,256,400.291z"/>
<path d="M404.011,241.473l-50.9-29.087c-4.934-2.82-10.722-3.756-16.29-2.643l-26.515,5.303c-0.874-9.686-2.182-19.066-3.903-27.966
	l19.857-9.929c1.799-0.899,3.867-1.134,5.819-0.663l52.423,12.654c4.025,0.975,8.079-1.504,9.051-5.531
	c0.972-4.026-1.505-8.079-5.531-9.05l-52.424-12.654c-5.385-1.3-11.086-0.651-16.046,1.828l-16.577,8.289
	c-1.111-4.201-2.329-8.242-3.639-12.12c2.65-3.333,4.246-7.541,4.246-12.121c0-1.654-0.229-3.251-0.618-4.786l63.575-24.452
	c16.593-6.382,26.941-23.25,25.165-41.02c-2.083-20.843-9.709-50.831-34.206-75.328c-2.93-2.929-7.678-2.929-10.607,0
	s-2.929,7.678,0,10.606c11.075,11.074,18.258,23.282,22.751,35.482c3.026,8.214,2.415,17.184-2.524,20.004
	c-5.028,2.874-14.365,0.295-24.001-11.829c-6.211-13.406-14.567-27.1-25.699-38.232c-2.93-2.929-7.678-2.929-10.607,0
	s-2.929,7.678,0,10.606c26.758,26.757,35.975,72.499,37.66,82.126l-51.112,19.659c-2.767-1.505-5.936-2.362-9.302-2.362
	c-0.194,0-0.381,0.023-0.573,0.029c-10.19-13.202-20.491-16.062-27.483-16.062c-7.003,0-17.299,2.866-27.485,16.062
	c-0.192-0.006-0.379-0.029-0.572-0.029c-3.365,0-6.535,0.856-9.302,2.362l-51.114-19.659c1.671-9.609,10.83-55.293,37.662-82.125
	c2.929-2.929,2.929-7.678,0-10.606c-2.93-2.929-7.678-2.929-10.607,0c-11.132,11.132-19.488,24.826-25.698,38.232
	c-9.639,12.125-18.974,14.701-24.002,11.829c-4.938-2.82-4.445-12.79-2.524-20.004c3.297-12.379,11.677-24.408,22.751-35.482
	c2.929-2.929,2.929-7.678,0-10.606c-2.93-2.929-7.678-2.929-10.607,0c-24.497,24.497-32.123,54.485-34.206,75.328
	c-1.776,17.771,8.572,34.638,25.165,41.02l63.575,24.452c-0.389,1.534-0.618,3.132-0.618,4.786c0,4.578,1.595,8.785,4.244,12.118
	c-1.311,3.878-2.523,7.925-3.634,12.124l-16.582-8.291c-4.959-2.479-10.656-3.129-16.046-1.827l-52.423,12.654
	c-4.026,0.972-6.503,5.024-5.531,9.05s5.026,6.508,9.051,5.531l52.422-12.654c1.956-0.471,4.022-0.236,5.819,0.663l19.86,9.93
	c-1.72,8.9-3.031,18.277-3.904,27.965l-26.515-5.303c-5.569-1.112-11.356-0.175-16.29,2.644l-50.9,29.086
	c-3.597,2.055-4.846,6.636-2.791,10.233c1.385,2.422,3.915,3.78,6.519,3.78c1.262,0,2.541-0.319,3.714-0.99l50.9-29.086
	c1.789-1.023,3.887-1.365,5.907-0.958l28.466,5.693c-0.192,4.572-0.301,9.184-0.301,13.831c0,6.292,0.185,12.495,0.53,18.583
	l-14.173-3.542c-8.243-2.065-16.983,0.495-22.817,6.671l-27.626,29.252c-2.844,3.012-2.708,7.758,0.304,10.603
	c1.449,1.368,3.3,2.047,5.148,2.047c1.991,0,3.979-0.788,5.454-2.351l27.625-29.251c2.114-2.24,5.284-3.166,8.272-2.419
	l19.105,4.776c3.954,36.454,14.116,67.108,28.208,83.669c-1.269,3.163-1.975,6.61-1.975,10.221v8.017
	c0,8.336,3.729,15.814,9.599,20.868c-3.484,4.104-5.592,9.411-5.592,15.204v16.032c0,9.225,5.338,17.223,13.086,21.078
	c-4.684,8.886-3.296,20.16,4.17,27.627l5.668,5.668c4.588,4.587,10.614,6.881,16.641,6.881c2.988,0,5.975-0.567,8.787-1.695
	c1.674,11.346,11.473,20.085,23.279,20.085h8.017c11.41,0,20.946-8.164,23.082-18.957c3.517,1.931,7.42,2.914,11.33,2.914
	c6.025,0,12.052-2.294,16.64-6.881l5.669-5.669c8.245-8.246,9.055-21.125,2.481-30.313c7.39-3.973,12.427-11.779,12.427-20.74
	v-8.016c0-10.353-6.724-19.16-16.032-22.3v-41.828c0-4.143-3.357-7.5-7.5-7.5s-7.5,3.357-7.5,7.5v41.829
	c-9.308,3.139-16.032,11.946-16.032,22.3v8.016c0,5.099,1.635,9.82,4.402,13.678c-1.985,1.063-3.852,2.422-5.525,4.094l-5.67,5.669
	c-3.419,3.419-5.56,7.639-6.43,12.061c-3.366-1.859-7.231-2.921-11.341-2.921h-8.017c-3.118,0-6.094,0.615-8.819,1.721
	c-0.708-4.836-2.892-9.496-6.605-13.21l-5.668-5.668c-1.862-1.861-3.967-3.325-6.207-4.431c1.743-3.284,2.735-7.024,2.735-10.994
	v-16.032c0-5.793-2.108-11.099-5.592-15.204c5.871-5.054,9.599-12.532,9.599-20.868v-8.017c0-3.609-0.705-7.055-1.973-10.217
	c14.101-16.568,24.261-47.201,28.211-83.674l19.102-4.776c2.982-0.749,6.155,0.18,8.271,2.419l27.626,29.252
	c1.476,1.563,3.463,2.351,5.454,2.351c1.848,0,3.699-0.679,5.148-2.047c3.012-2.845,3.147-7.591,0.304-10.603l-27.627-29.253
	c-5.834-6.176-14.571-8.734-22.815-6.671l-14.173,3.543c0.345-6.088,0.53-12.29,0.53-18.583c0-4.646-0.109-9.258-0.302-13.831
	l28.467-5.693c2.019-0.406,4.118-0.064,5.907,0.958l50.9,29.086c1.174,0.671,2.452,0.99,3.714,0.99c2.604,0,5.135-1.358,6.519-3.78
	C408.856,248.109,407.607,243.528,404.011,241.473z M289.165,293.581c-3.736-1.788-8.214-0.207-10.002,3.529
	c-1.787,3.736-0.207,8.215,3.529,10.002c2.177,1.041,4.249,2.223,6.215,3.509c-4.207,16.549-9.962,30.214-16.82,39.281
	c-4.53-3.272-10.085-5.208-16.087-5.208c-6,0-11.554,1.935-16.083,5.205c-6.852-9.067-12.606-22.729-16.813-39.27
	c9.26-6.066,20.814-9.387,32.913-9.387c4.143,0,7.5-3.357,7.5-7.5s-3.357-7.5-7.5-7.5c-12.974,0-25.522,3.136-36.24,8.933
	c-1.344-7.484-2.401-15.367-3.138-23.534c11.074-5.262,24.876-8.141,39.348-8.141c14.504,0,28.301,2.881,39.378,8.154
	c-0.735,8.154-1.79,16.021-3.129,23.49C291.228,294.601,290.205,294.078,289.165,293.581z M268.54,380.251
	c0,6.915-5.625,12.54-12.54,12.54s-12.54-5.625-12.54-12.54v-8.017c0-6.915,5.625-12.54,12.54-12.54
	c6.915,0,12.54,5.625,12.54,12.54V380.251z M227.943,152.307c-2.495,0-4.524-2.03-4.524-4.524s2.029-4.524,4.524-4.524
	s4.524,2.029,4.524,4.524S230.438,152.307,227.943,152.307z M255.986,248.501c-14.413,0-28.377,2.545-40.355,7.249
	c-0.146-3.887-0.228-7.813-0.228-11.773c0-1.476,0.02-2.945,0.04-4.414c11.423-5.253,25.637-8.126,40.536-8.126
	c1.37,0,2.757,0.025,4.121,0.073c4.161,0.153,7.614-3.088,7.763-7.228c0.147-4.139-3.088-7.615-7.228-7.762
	c-1.542-0.055-3.109-0.083-4.656-0.083c-14.176,0-27.936,2.325-39.872,6.653c0.265-3.944,0.601-7.84,1.013-11.674
	c10.837-5.813,24.517-8.996,38.872-8.996c14.383,0,28.05,3.188,38.889,9.011c0.412,3.839,0.748,7.74,1.013,11.689
	c-0.608-0.222-1.208-0.452-1.827-0.663c-3.919-1.337-8.183,0.754-9.521,4.675c-1.338,3.92,0.755,8.183,4.675,9.521
	c2.567,0.876,5.011,1.866,7.336,2.935c0.02,1.46,0.039,2.921,0.039,4.389c0,3.968-0.083,7.9-0.229,11.793
	C284.389,251.053,270.431,248.501,255.986,248.501z M284.057,143.259c2.495,0,4.524,2.029,4.524,4.524s-2.029,4.524-4.524,4.524
	s-4.524-2.03-4.524-4.524S281.561,143.259,284.057,143.259z M353.04,82.627c3.278,1.165,6.554,1.75,9.722,1.75
	c4.213,0,8.23-1.025,11.794-3.06c0.794-0.453,1.548-0.951,2.269-1.484c0.719,10.763-5.62,20.846-15.671,24.712l-2.423,0.932
	C357.782,100.493,356.005,92.335,353.04,82.627z M256,127.226c5.155,0,9.822,3.576,13.461,7.633
	c-3.056,3.447-4.929,7.965-4.929,12.923c0,10.766,8.759,19.524,19.524,19.524c0.641,0,1.274-0.036,1.9-0.096
	c2.613,8.167,4.774,17.129,6.452,26.656c-11.002-4.197-23.513-6.447-36.416-6.447c-12.882,0-25.399,2.248-36.404,6.44
	c1.677-9.527,3.845-18.48,6.459-26.649c0.625,0.06,1.256,0.096,1.896,0.096c10.766,0,19.524-8.759,19.524-19.524
	c0-4.957-1.873-9.475-4.928-12.922C246.191,130.788,250.851,127.226,256,127.226z M135.175,79.833
	c0.721,0.532,1.475,1.03,2.269,1.484c3.563,2.035,7.581,3.06,11.794,3.06c3.166,0,6.445-0.585,9.722-1.75
	c-2.965,9.708-4.742,17.866-5.69,22.85l-2.423-0.932C140.795,100.679,134.456,90.596,135.175,79.833z M351.678,424.34
	c0-4.705,3.827-8.532,8.532-8.532s8.532,3.827,8.532,8.532v8.016c0,4.705-3.827,8.532-8.532,8.532s-8.532-3.827-8.532-8.532V424.34z
	 M340.491,466.403l5.67-5.668c1.663-1.664,3.848-2.495,6.033-2.495s4.369,0.831,6.032,2.495c3.327,3.326,3.327,8.739,0,12.065
	l-5.669,5.669c-3.327,3.328-8.739,3.326-12.066,0l0.001-0.001C337.165,475.142,337.166,469.729,340.491,466.403z M304.097,479.936
	h8.017c4.705,0,8.532,3.827,8.532,8.532s-3.828,8.533-8.533,8.533h-8.017c-4.705,0-8.532-3.827-8.532-8.532
	S299.391,479.936,304.097,479.936z M278.065,476.121c-3.326,3.328-8.74,3.328-12.066,0l-5.668-5.668
	c-3.327-3.326-3.327-8.739,0-12.065c1.663-1.664,3.848-2.495,6.032-2.495c2.186,0,4.37,0.832,6.034,2.495l5.668,5.668
	C281.392,467.382,281.392,472.795,278.065,476.121z M264.532,416.323v16.032c0,4.705-3.827,8.532-8.532,8.532
	s-8.532-3.827-8.532-8.532v-16.032c0-4.705,3.827-8.532,8.532-8.532C260.705,407.791,264.532,411.618,264.532,416.323z"/>
<g>
</g>
<g>
</g>
<g>
</g>
<g>
</g>
<g>
</g>
<g>
</g>
<g>
</g>
<g>
</g>
<g>
</g>
<g>
</g>
<g>
</g>
<g>
</g>
<g>
</g>
<g>
</g>
<g>
</g>
</svg>
