<svg id="icons" height="512" viewBox="0 0 64 64" width="512" xmlns="http://www.w3.org/2000/svg"><g><path d="m36.6 15.073-1.6 2h-6l-1.6-2 1.6-2h1 4 1z" fill="#656d78"/><circle cx="36.5" cy="37.573" fill="#545c66" r="1.5"/><path d="m25 18.0732 1.6-2 .8-1 1.6 2h6l1.6-2 .8 1 1.6 2v2a1.99944 1.99944 0 0 1 -2 2h-10a1.99309 1.99309 0 0 1 -2-2z" fill="#ed5565"/><g fill="#545c66"><path d="m37 22.073-5 15-5-15z"/><path d="m35 10.073-1 3h-4l-1-3 1-1 2-2 2 2z"/><path d="m32 37.0732a5.992 5.992 0 0 0 6 6 20.87447 20.87447 0 0 1 -6 14.7 20.87447 20.87447 0 0 1 -6-14.7 5.99835 5.99835 0 0 0 6-6z"/><circle cx="27.5" cy="37.573" r="1.5"/></g><path d="m27.5 39.0732a1.5 1.5 0 1 0 -1.5-1.5 1.498 1.498 0 0 0 1.5 1.5zm7.5-1.5a1.5 1.5 0 1 0 1.5-1.5 1.498 1.498 0 0 0 -1.5 1.5zm-10-17.5a1.99309 1.99309 0 0 0 2 2l5 15a5.99835 5.99835 0 0 1 -6 6 20.87447 20.87447 0 0 0 6 14.7 20.87447 20.87447 0 0 0 6-14.7 5.992 5.992 0 0 1 -6-6l5-15a1.99944 1.99944 0 0 0 2-2l.35 4 .95 11 .7 8a23.92437 23.92437 0 0 1 -9 18.74 23.92437 23.92437 0 0 1 -9-18.74l1.65-19z" fill="#da4453"/></g><g><path d="m37 23a1 1 0 0 1 0-2 1.00067 1.00067 0 0 0 1-1 1 1 0 0 1 2 0 3.00328 3.00328 0 0 1 -3 3z"/><path d="m39.001 19a.9988.9988 0 0 1 -.78223-.375l-4.001-5a1.00049 1.00049 0 1 1 1.5625-1.25l4.001 5a.99991.99991 0 0 1 -.78027 1.625z"/><path d="m39 21a.99943.99943 0 0 1 -1-1v-2a1 1 0 0 1 2 0v2a.99943.99943 0 0 1 -1 1z"/><path d="m27 23a3.00328 3.00328 0 0 1 -3-3 1 1 0 0 1 2 0 1.00067 1.00067 0 0 0 1 1 1 1 0 0 1 0 2z"/><path d="m24.999 19a.99991.99991 0 0 1 -.78027-1.625l3.999-5a1.00049 1.00049 0 0 1 1.5625 1.25l-3.999 5a1.00183 1.00183 0 0 1 -.78223.375z"/><path d="m25 21a.99943.99943 0 0 1 -1-1v-2a1 1 0 0 1 2 0v2a.99943.99943 0 0 1 -1 1z"/><path d="m34.999 14h-6a1 1 0 0 1 0-2h6a1 1 0 0 1 0 2z"/><path d="m37 23h-10a1 1 0 0 1 0-2h10a1 1 0 0 1 0 2z"/><path d="m35 11a.99676.99676 0 0 1 -.707-.293l-3-3a.99989.99989 0 1 1 1.414-1.414l3 3a1 1 0 0 1 -.707 1.707z"/><path d="m33.999 14a1.00063 1.00063 0 0 1 -.94824-1.31641l1.001-3a.99964.99964 0 0 1 1.89648.63282l-1.001 3a.99949.99949 0 0 1 -.94824.68359z"/><path d="m36 11h-1a1 1 0 0 1 0-2h1a1 1 0 0 1 0 2z"/><path d="m29 11a1 1 0 0 1 -.707-1.707l3-3a.99989.99989 0 0 1 1.414 1.414l-3 3a.99676.99676 0 0 1 -.707.293z"/><path d="m30.001 14a.99949.99949 0 0 1 -.94825-.68359l-1.001-3a.99964.99964 0 1 1 1.89648-.63282l1.001 3a1.00063 1.00063 0 0 1 -.94823 1.31641z"/><path d="m29 11h-1a1 1 0 0 1 0-2h1a1 1 0 0 1 0 2z"/><path d="m34 10a1.00062 1.00062 0 0 1 -.94824-1.31641l1-3a.99964.99964 0 1 1 1.89648.63282l-1 3a.99947.99947 0 0 1 -.94824.68359z"/><path d="m35 7a.99995.99995 0 0 1 -.38477-1.92285l12-5a.99985.99985 0 0 1 .76954 1.8457l-12 5a.99137.99137 0 0 1 -.38477.07715z"/><path d="m53 2h-6a1 1 0 0 1 0-2h6a1 1 0 0 1 0 2z"/><path d="m30 10a.99947.99947 0 0 1 -.94824-.68359l-1-3a.99964.99964 0 0 1 1.89648-.63282l1 3a1.00062 1.00062 0 0 1 -.94824 1.31641z"/><path d="m29 7a.99137.99137 0 0 1 -.38477-.07715l-12-5a.99985.99985 0 1 1 .76954-1.8457l12 5a.99995.99995 0 0 1 -.38477 1.92285z"/><path d="m17 2h-6a1 1 0 0 1 0-2h6a1 1 0 0 1 0 2z"/><path d="m40.999 44a.99934.99934 0 0 1 -.99511-.91309l-2-23a.99987.99987 0 1 1 1.99218-.17382l2 23a.99972.99972 0 0 1 -.90918 1.083c-.02927.00291-.05857.00391-.08789.00391z"/><path d="m32.001 62.74316a1 1 0 0 1 -.626-1.78027 22.90519 22.90519 0 0 0 8.625-17.96289 1 1 0 0 1 2 0 24.89356 24.89356 0 0 1 -9.375 19.52344.99764.99764 0 0 1 -.624.21972z"/><path d="m23.001 44c-.0293 0-.0586-.001-.08789-.00391a.99972.99972 0 0 1 -.90918-1.083l2-23a.99987.99987 0 0 1 1.99218.17382l-2 23a.99934.99934 0 0 1 -.99511.91309z"/><path d="m31.999 62.74316a.99188.99188 0 0 1 -.624-.21972 24.89356 24.89356 0 0 1 -9.375-19.52344 1 1 0 0 1 2 0 22.90519 22.90519 0 0 0 8.625 17.96289 1 1 0 0 1 -.626 1.78027z"/><path d="m32 58.70215a.99716.99716 0 0 1 -.71289-.29883 21.84035 21.84035 0 0 1 -6.28711-15.40332 1 1 0 0 1 2 0 19.85088 19.85088 0 0 0 5 13.2373 19.85088 19.85088 0 0 0 5-13.2373 1 1 0 0 1 2 0 21.84035 21.84035 0 0 1 -6.28711 15.40332.99716.99716 0 0 1 -.71289.29883z"/><path d="m37.40039 17a1 1 0 0 1 -.61039-1.793l2.60059-2a1.00007 1.00007 0 0 1 1.21879 1.586l-2.60059 2a.994.994 0 0 1 -.6084.207z"/><path d="m48 15h-8a1 1 0 0 1 0-2h8a1 1 0 0 1 0 2z"/><path d="m48.001 15a.99993.99993 0 0 1 -.60059-1.7998l4-3a.99961.99961 0 1 1 1.19922 1.5996l-4 3a.99413.99413 0 0 1 -.59863.2002z"/><path d="m39.34668 25a.99982.99982 0 0 1 -.17285-1.98437l5.65234-1a.99961.99961 0 1 1 .34766 1.96875l-5.65235 1a.96944.96944 0 0 1 -.1748.01562z"/><path d="m45 34a.99943.99943 0 0 1 -1-1v-10a1 1 0 0 1 2 0v10a.99943.99943 0 0 1 -1 1z"/><path d="m51 36a.99826.99826 0 0 1 -.31641-.05176l-6-2a.99964.99964 0 0 1 .63282-1.89648l6 2a.99986.99986 0 0 1 -.31641 1.94824z"/><path d="m47.999 40a.99914.99914 0 0 1 -.46-.1123l-7.69531-4a1.00024 1.00024 0 1 1 .92188-1.7754l7.69531 4a1.00007 1.00007 0 0 1 -.46188 1.8877z"/><path d="m44.001 56a1.00129 1.00129 0 0 1 -.97071-1.24219l4-16a.99952.99952 0 0 1 1.93946.48438l-4 16a.9986.9986 0 0 1 -.96875.75781z"/><path d="m50.001 64a.99556.99556 0 0 1 -.80078-.40039l-6-8a.99961.99961 0 0 1 1.5996-1.19922l6 8a1.0001 1.0001 0 0 1 -.79882 1.59961z"/><path d="m26.59961 17a.994.994 0 0 1 -.6084-.207l-2.60058-2a1.00007 1.00007 0 1 1 1.21875-1.586l2.60058 2a1 1 0 0 1 -.61035 1.793z"/><path d="m24 15h-8a1 1 0 0 1 0-2h8a1 1 0 0 1 0 2z"/><path d="m15.999 15a.99413.99413 0 0 1 -.59863-.2002l-4-3a.99961.99961 0 0 1 1.19922-1.5996l4 3a.99993.99993 0 0 1 -.60059 1.7998z"/><path d="m24.65332 25a.96944.96944 0 0 1 -.1748-.01562l-5.65235-1a.99961.99961 0 0 1 .34766-1.96875l5.65234 1a.99982.99982 0 0 1 -.17285 1.98437z"/><path d="m19 34a.99943.99943 0 0 1 -1-1v-10a1 1 0 0 1 2 0v10a.99943.99943 0 0 1 -1 1z"/><path d="m13 36a.99986.99986 0 0 1 -.31641-1.94824l6-2a.99964.99964 0 0 1 .63282 1.89648l-6 2a.99826.99826 0 0 1 -.31641.05176z"/><path d="m16.001 40a1.00007 1.00007 0 0 1 -.46192-1.8877l7.69532-4a1.00024 1.00024 0 0 1 .92187 1.7754l-7.69531 4a.99914.99914 0 0 1 -.45996.1123z"/><path d="m19.999 56a.9986.9986 0 0 1 -.96875-.75781l-4-16a.99952.99952 0 1 1 1.93946-.48438l4 16a1.00129 1.00129 0 0 1 -.97071 1.24219z"/><path d="m13.999 64a1.0001 1.0001 0 0 1 -.79882-1.59961l6-8a.99961.99961 0 1 1 1.5996 1.19922l-6 8a.99556.99556 0 0 1 -.80078.40039z"/><path d="m32 38a.99947.99947 0 0 1 -.94824-.68359l-5-15a.99964.99964 0 1 1 1.89648-.63282l5 15a1.00062 1.00062 0 0 1 -.94824 1.31641z"/><path d="m32 38a1.00062 1.00062 0 0 1 -.94824-1.31641l5-15a.99964.99964 0 1 1 1.89648.63282l-5 15a.99947.99947 0 0 1 -.94824.68359z"/><path d="m26 44a1 1 0 0 1 0-2 5.00588 5.00588 0 0 0 5-5 1 1 0 0 1 2 0 7.00848 7.00848 0 0 1 -7 7z"/><path d="m38 44a7.00849 7.00849 0 0 1 -7-7 1 1 0 0 1 2 0 5.00588 5.00588 0 0 0 5 5 1 1 0 0 1 0 2z"/><path d="m27.5 40a2.5 2.5 0 1 1 2.5-2.5 2.50231 2.50231 0 0 1 -2.5 2.5zm0-3a.5.5 0 1 0 .5.5.501.501 0 0 0 -.5-.5z"/><path d="m36.5 40a2.5 2.5 0 1 1 2.5-2.5 2.50231 2.50231 0 0 1 -2.5 2.5zm0-3a.5.5 0 1 0 .5.5.501.501 0 0 0 -.5-.5z"/><path d="m29.001 18a.99548.99548 0 0 1 -.78125-.375l-1.60059-2a.99973.99973 0 0 1 1.56055-1.25l1.60058 2a1.00005 1.00005 0 0 1 -.77929 1.625z"/><path d="m34.999 18a.99991.99991 0 0 1 -.78027-1.625l1.59961-2a1.00049 1.00049 0 0 1 1.5625 1.25l-1.59961 2a1.00183 1.00183 0 0 1 -.78223.375z"/><path d="m35 18h-6a1 1 0 0 1 0-2h6a1 1 0 0 1 0 2z"/></g></svg>