<svg id="Layer_5" enable-background="new 0 0 64 64" height="512" viewBox="0 0 64 64" width="512" xmlns="http://www.w3.org/2000/svg"><g><g><g><path d="m38.7 31c1.27 0 2.3 1.03 2.3 2.3 0 1.01-.64 1.89-1.6 2.19-.01.01-.03.02-.04.02-2 .59-5.35 1.49-7.36 1.49s-5.36-.9-7.36-1.49c-.01 0-.03-.01-.04-.02-.96-.3-1.6-1.18-1.6-2.19 0-.64.26-1.21.67-1.63.42-.41.99-.67 1.63-.67h.7 12z" fill="#fc6e51"/></g><g><path d="m32 54c4.11 0 8.5-2.07 10.71-3.76-1.76 9.13-10.71 10.76-10.71 10.76s-8.76-2.39-10.64-10.72c2.23 1.7 6.58 3.72 10.64 3.72z" fill="#fc6e51"/></g><g><path d="m41.23 39.55c.64 1.6 1.17 3.23 1.47 4.78-1.92 1.77-5.83 3.67-10.7 3.67s-8.78-1.9-10.7-3.67c.3-1.55.83-3.18 1.47-4.78 2.14 1.63 5.38 3.45 9.23 3.45s7.09-1.82 9.23-3.45z" fill="#fc6e51"/></g><g><path d="m42.7 44.33c.19.93.3 1.83.3 2.67 0 1.17-.11 2.25-.29 3.24-2.21 1.69-6.6 3.76-10.71 3.76-4.06 0-8.41-2.02-10.64-3.72-.23-1-.36-2.09-.36-3.28 0-.84.11-1.74.3-2.67 1.92 1.77 5.83 3.67 10.7 3.67s8.78-1.9 10.7-3.67z" fill="#ff826e"/></g><g><path d="m40.16 37.07c.37.81.74 1.64 1.07 2.48-2.14 1.63-5.38 3.45-9.23 3.45s-7.09-1.82-9.23-3.45c.33-.84.7-1.67 1.07-2.48.25-.54.51-1.07.76-1.58.01.01.03.02.04.02 2 .59 5.35 1.49 7.36 1.49s5.36-.9 7.36-1.49c.01 0 .03-.01.04-.02.25.51.51 1.04.76 1.58z" fill="#ff826e"/></g><g><path d="m38 25c1.66 0 3 1.34 3 3 0 .83-.34 1.58-.88 2.12s-1.29.88-2.12.88h-12c-1.66 0-3-1.34-3-3 0-.83.34-1.58.88-2.12s1.29-.88 2.12-.88h6z" fill="#fc6e51"/></g><g><path d="m39.12 12.87c1.26 1.86 1.88 4.12 1.88 6.13 0 4.42-4.03 6-9 6s-9-1.58-9-6c0-2.01.62-4.27 1.88-6.13.57-.86 1.28-1.64 2.13-2.26 1.33-.99 2.99-1.61 4.99-1.61s3.66.62 4.99 1.61c.85.62 1.56 1.4 2.13 2.26z" fill="#ff826e"/></g><g><path d="m29 3s-1.89 2.94-1.99 7.61c-.85.62-1.56 1.4-2.13 2.26-.44-.47-1.88-2.17-1.88-3.87 0-4 6-6 6-6z" fill="#969faa"/></g><g><path d="m41 9c0 1.7-1.44 3.4-1.88 3.87-.57-.86-1.28-1.64-2.13-2.26-.1-4.67-1.99-7.61-1.99-7.61s6 2 6 6z" fill="#969faa"/></g></g><path d="m56.342 37.789 2.211 1.105.895-1.789-1.789-.895-6.229-8.306-9.818 1.786c.242-.514.388-1.084.388-1.69 0-1.507-.847-2.805-2.08-3.487l9.647-2.631 5.201-6.241-1.536-1.281-4.799 5.759-7.162 1.953c.477-.89.729-1.915.729-3.072 0-.679-.078-1.401-.217-2.136 1.736-.378 6.217-1.665 6.217-4.864 0-5.177-2.02-9.275-2.105-9.447l-1.79.894c.019.037 1.895 3.866 1.895 8.553 0 1.496-2.964 2.555-4.746 2.932-.241-.671-.541-1.33-.904-1.964.684-.862 1.65-2.355 1.65-3.968 0-4.667-6.411-6.857-6.684-6.948-.404-.137-.846-.001-1.106.335-.26.335-.28.798-.051 1.155.015.023 1.261 2 1.693 5.25-1.123-.494-2.398-.792-3.852-.792-1.453 0-2.728.298-3.85.792.434-3.231 1.677-5.228 1.691-5.25.229-.357.209-.82-.051-1.155-.261-.336-.703-.472-1.106-.335-.273.091-6.684 2.281-6.684 6.948 0 1.613.966 3.106 1.65 3.968-.363.634-.663 1.294-.904 1.964-1.782-.377-4.746-1.436-4.746-2.932 0-4.688 1.876-8.516 1.895-8.554l-1.79-.894c-.085.173-2.105 4.271-2.105 9.448 0 3.199 4.481 4.486 6.217 4.864-.139.735-.217 1.457-.217 2.136 0 1.157.252 2.182.729 3.071l-7.162-1.953-4.799-5.759-1.536 1.281 5.201 6.241 9.647 2.631c-1.233.683-2.08 1.981-2.08 3.488 0 .606.146 1.176.388 1.691l-9.818-1.786-6.229 8.306-1.789.895.895 1.789 2.211-1.105 5.771-7.694 8.989 1.634c-.258.469-.418 1-.418 1.574 0 1.055.491 2.001 1.283 2.61-.065.134-.131.269-.193.402l-10.913 4.96-3.981 12.938-2.512.838.633 1.896 3.488-1.162 4.019-13.062 8.066-3.667c-1.248 3.118-1.89 5.785-1.89 7.943 0 11.629 11.62 14.933 11.737 14.965l.219.06.223-.041c.118-.022 11.821-2.296 11.821-14.984 0-2.158-.642-4.825-1.889-7.942l8.066 3.667 4.019 13.062 3.488 1.162.633-1.896-2.512-.838-3.981-12.938-10.913-4.96c-.063-.133-.129-.268-.193-.402.791-.611 1.282-1.556 1.282-2.611 0-.573-.16-1.105-.418-1.575l8.989-1.634zm-17.646-5.789c.719 0 1.304.585 1.304 1.304 0 .582-.372 1.084-.926 1.248-3.146.933-5.658 1.448-7.074 1.448s-3.928-.515-7.074-1.448c-.554-.164-.926-.666-.926-1.248 0-.719.585-1.304 1.304-1.304h.696 12zm3.304 15c0 .967-.096 1.843-.234 2.675-2.012 1.443-5.924 3.325-9.766 3.325-3.415 0-7.371-1.619-9.718-3.292-.17-.843-.282-1.735-.282-2.708 0-.27.021-.56.045-.853 2.272 1.518 5.727 2.853 9.955 2.853s7.682-1.335 9.955-2.853c.024.293.045.583.045.853zm-10 0c-4.312 0-7.741-1.574-9.59-3.059.204-.878.484-1.82.841-2.825 2.176 1.452 5.208 2.884 8.749 2.884s6.573-1.432 8.749-2.884c.357 1.005.637 1.948.841 2.826-1.849 1.484-5.279 3.058-9.59 3.058zm0-5c-3.259 0-6.068-1.433-8.013-2.801.335-.803.724-1.645 1.14-2.506 2.252.641 5.033 1.307 6.873 1.307s4.621-.666 6.873-1.307c.417.861.805 1.703 1.14 2.506-1.945 1.368-4.754 2.801-8.013 2.801zm5.031-36.923c1.424.861 2.969 2.194 2.969 3.923 0 .754-.422 1.583-.867 2.241-.357-.414-.748-.799-1.175-1.152-.099-2.025-.491-3.739-.927-5.012zm2.969 13.923c0 4.133-4.351 5-8 5s-8-.867-8-5c0-3.737 2.482-9 8-9s8 5.263 8 9zm-16-10c0-1.669 1.491-3.027 2.973-3.934-.437 1.274-.831 2.992-.931 5.023-.427.353-.818.738-1.175 1.152-.445-.658-.867-1.487-.867-2.241zm2 17h12c1.103 0 2 .897 2 2s-.897 2-2 2h-12c-1.103 0-2-.897-2-2s.897-2 2-2zm6.046 33.969c-1.131-.368-6.364-2.322-8.794-7.338 2.496 1.303 5.714 2.369 8.748 2.369 3.043 0 6.4-1.105 8.983-2.492-2.278 5.615-7.729 7.182-8.937 7.461z"/></g></svg>